<svg xmlns="http://www.w3.org/2000/svg" viewBox="0 0 277.38 294.04"><title>sytac-logo</title><polygon points="23.05 69.24 96.5 26.83 211.93 93.47 211.93 166.16 234.96 152.86 234.96 80.17 96.5 0.21 0 55.94 0 167.35 31.39 185.48 31.39 158.88 23.05 154.05 23.05 69.24" fill="#ed6106"/><polygon points="180.87 0 148.99 18.4 172.05 31.7 180.87 26.62 254.33 69.01 254.33 153.82 138.47 220.69 75.29 184.22 75.28 210.81 138.47 247.3 277.38 167.15 277.38 55.71 180.87 0" fill="#ed6106"/><polygon points="211.93 225.01 138.47 267.42 65.01 225.01 65.01 93.47 128.14 57.04 105.11 43.74 41.97 80.17 41.97 238.31 138.47 294.05 234.96 238.31 234.96 203.56 211.93 216.88 211.93 225.01" fill="#ed6106"/></svg>