<?xml version="1.0" encoding="UTF-8" standalone="no"?>
<svg
   xmlns:dc="http://purl.org/dc/elements/1.1/"
   xmlns:cc="http://creativecommons.org/ns#"
   xmlns:rdf="http://www.w3.org/1999/02/22-rdf-syntax-ns#"
   xmlns:svg="http://www.w3.org/2000/svg"
   xmlns="http://www.w3.org/2000/svg"
   viewBox="0 0 1203.5601 392.06668"
   height="392.06668"
   width="1203.5601"
   xml:space="preserve"
   id="svg2"
   version="1.1"><metadata
     id="metadata8"><rdf:RDF><cc:Work
         rdf:about=""><dc:format>image/svg+xml</dc:format><dc:type
           rdf:resource="http://purl.org/dc/dcmitype/StillImage" /></cc:Work></rdf:RDF></metadata><defs
     id="defs6"><clipPath
       id="clipPath20"
       clipPathUnits="userSpaceOnUse"><path
         id="path18"
         d="M 0,0 H 9026.66 V 2940 H 0 Z" /></clipPath></defs><g
     transform="matrix(1.3333333,0,0,-1.3333333,0,392.06667)"
     id="g10"><g
       transform="scale(0.1)"
       id="g12"><g
         id="g14"><g
           clip-path="url(#clipPath20)"
           id="g16"><path
             id="path22"
             style="fill:#e56f1a;fill-opacity:1;fill-rule:nonzero;stroke:none"
             d="m 2119.32,2005.7 v -726.83 l 230.3,133.01 v 726.84 l -230.3,-133.02" /><path
             id="path24"
             style="fill:#e56f1a;fill-opacity:1;fill-rule:nonzero;stroke:none"
             d="m 230.531,2248.07 734.43,424.07 1154.359,-666.44 230.3,133.02 L 964.961,2938.39 0,2381.07 l 230.531,-133" /><path
             id="path26"
             style="fill:#e56f1a;fill-opacity:1;fill-rule:nonzero;stroke:none"
             d="M 230.531,2248.07 0,2381.07 V 1266.92 l 313.922,-181.25 v 266.03 l -83.391,48.23 v 848.14" /><path
             id="path28"
             style="fill:#e56f1a;fill-opacity:1;fill-rule:nonzero;stroke:none"
             d="M 1384.65,733.512 752.922,1098.29 752.805,832.301 1384.65,467.48 v 266.032" /><path
             id="path30"
             style="fill:#e56f1a;fill-opacity:1;fill-rule:nonzero;stroke:none"
             d="M 2543.28,2250.36 V 1402.24 L 1384.65,733.512 V 467.48 l 1389.14,801.51 v 1114.39 l -230.51,-133.02" /><path
             id="path32"
             style="fill:#e56f1a;fill-opacity:1;fill-rule:nonzero;stroke:none"
             d="m 1808.73,2940.45 -318.86,-184 230.65,-133.01 88.21,50.77 734.55,-423.85 230.51,133.02 -965.06,557.07" /><path
             id="path34"
             style="fill:#e56f1a;fill-opacity:1;fill-rule:nonzero;stroke:none"
             d="M 1384.65,266.25 650.121,690.309 V 2005.7 L 419.707,2138.72 V 557.309 L 1384.65,0 v 266.25" /><path
             id="path36"
             style="fill:#e56f1a;fill-opacity:1;fill-rule:nonzero;stroke:none"
             d="M 650.121,2005.7 1281.4,2370.05 1051.11,2503.06 419.707,2138.72 650.121,2005.7" /><path
             id="path38"
             style="fill:#e56f1a;fill-opacity:1;fill-rule:nonzero;stroke:none"
             d="M 2119.32,771.641 V 690.309 L 1384.65,266.25 V 0 l 964.97,557.309 v 347.57 l -230.3,-133.238" /><path
             id="path40"
             style="fill:#222630;fill-opacity:1;fill-rule:nonzero;stroke:none"
             d="m 4085.63,1558.56 c -51.69,19.63 -97.97,41.35 -139.1,65.01 -41,23.55 -76.04,51.58 -104.87,84.31 -28.83,32.62 -51.35,71.78 -67.31,117.49 -15.85,45.61 -23.89,100.29 -23.89,164.02 0,77.66 13.32,146 39.85,205.27 26.66,59.27 64.22,109 112.92,149.44 48.59,40.2 107.05,70.64 175.62,91.19 68.34,20.68 145.07,30.9 230.31,30.9 77.52,0 149.88,-6.88 217.66,-20.67 67.54,-13.56 138.74,-33.31 213.4,-59.15 -9.29,-88.23 -33.65,-174.83 -73.17,-259.93 -22.72,8.95 -45.93,18.14 -69.61,27.21 -23.54,9.2 -48.47,16.66 -75.22,22.97 -26.42,5.98 -56.63,10.92 -89.93,14.7 -33.55,3.8 -71.57,5.64 -114.18,5.64 -25.73,0 -51.91,-2.3 -78.56,-6.77 -26.55,-4.59 -50.55,-12.98 -71.79,-25.05 -21.36,-12.29 -38.82,-29.97 -52.38,-53.64 -13.68,-23.66 -20.56,-54.45 -20.56,-92.46 0,-30.32 5.28,-55.83 15.84,-76.39 10.7,-20.33 25.17,-37.79 43.42,-52.37 18.27,-14.36 38.83,-26.54 61.69,-36.41 22.62,-9.88 45.37,-19.41 68.23,-28.5 l 136.91,-52.48 c 57.67,-22.74 110.03,-46.41 157.36,-70.64 46.97,-24.35 86.84,-54.44 119.57,-90.05 32.74,-35.72 58.23,-79.14 76.61,-130.03 18.15,-50.88 27.22,-113.71 27.22,-188.15 0,-77.53 -14.01,-148.29 -42.02,-212.03 -28.27,-63.75 -69.04,-118.529 -122.12,-164.138 -53.39,-45.582 -119.11,-81.543 -197.33,-107.153 -78.21,-25.75 -168.27,-38.82 -270.15,-38.82 -50.2,0 -94.99,1.711 -134.62,4.59 -39.51,3.09 -77.18,8.023 -112.91,14.812 -35.71,6.778 -70.98,15.508 -106.01,26.18 -34.91,10.687 -71.32,23.789 -109.46,38.84 4.71,44.097 12.86,90.16 25.26,137.941 12.07,47.998 26.43,96.018 43.2,144.738 63.85,-25.76 123.93,-45.39 180.09,-58.26 56.29,-12.85 116.37,-19.06 180.23,-19.06 95.79,0 171.03,17.7 225.69,53.52 54.68,35.61 82.13,89.83 82.13,162.9 0,36.5 -6.54,66.95 -19.52,91.19 -12.75,24.45 -29.41,44.9 -50.08,61.56 -20.45,16.77 -43.77,30.78 -69.49,42.15 -25.96,11.38 -52.38,22.52 -79.83,33.21 l -139.1,52.37" /><path
             id="path42"
             style="fill:#222630;fill-opacity:1;fill-rule:nonzero;stroke:none"
             d="m 6877.92,952.52 c -4.6,31.031 -12.06,61.12 -22.73,89.95 -16.9,-2.87 -36.31,-6.2 -58.35,-10.12 -21.95,-3.9 -44.24,-5.85 -67.09,-5.85 -28.95,0 -53.86,3.22 -75.25,9.19 -21.35,6.1 -39.15,17.46 -53.63,34.23 -14.35,16.78 -25.38,39.51 -32.96,68.34 -7.7,28.95 -11.48,66.97 -11.48,114.17 v 462.67 h 275.88 c 4.49,24.35 7.6,46.51 9.32,66.27 1.26,19.75 2.18,40.2 2.18,61.45 0,19.88 -0.92,38.82 -2.18,56.98 -1.72,18.26 -4.83,38.82 -9.32,61.68 h -275.88 v 344.23 h -52.38 L 6234.7,1961.48 c 0,0 -480.94,9.07 -531.13,0 L 5425.61,933.129 5179.34,1961.48 c -25.94,5.96 -54.67,9.87 -86.71,11.25 -31.83,1.73 -63.17,2.3 -93.5,2.3 -22.74,0 -47.43,-0.34 -74.21,-1.03 -26.64,-0.69 -57.31,-4.83 -92.33,-12.52 L 5179.34,782.531 c 11.95,-2.859 25.85,-4.601 41.12,-4.601 h 47.78 c 21.03,0 42.28,0.59 62.6,1.281 20.8,0.68 39.17,1.941 55.82,3.32 l -38.7,-141.281 c -12.06,-44.102 -25.96,-78.328 -41.12,-102.57 -15.28,-24.461 -31.47,-42.258 -48.81,-53.641 -17.58,-11.367 -35.27,-18.141 -53.87,-20.559 -18.15,-2.179 -36.06,-3.429 -54.57,-3.429 -22.63,0 -45.6,1.941 -68.46,5.847 -22.97,3.684 -41,7.692 -54.67,12.411 -12.29,-30.329 -22.28,-61.918 -30.67,-94.661 -8.39,-32.738 -12.64,-67.066 -12.64,-103.707 v -17 c 0,-5.289 0.59,-11.839 2.3,-19.41 33.32,-9.199 67.21,-16.429 101.54,-21.832 34.12,-5.289 72.6,-7.929 114.98,-7.929 45.59,0 88.33,4.371 127.85,12.742 39.51,8.277 75.11,23.109 107.15,44.238 31.95,21.469 60.32,51.109 85.47,88.91 25.16,38.121 46.86,85.899 65.01,143.789 L 5953.16,1715.1 h 284.06 v -533.54 c 0,-145.87 36.41,-251.08 109.46,-315.521 72.94,-64.789 178.72,-97.047 316.91,-97.047 74.43,0 146.57,8.27 216.52,25.039 1.6,10.668 2.74,21.821 3.54,32.949 0.7,11.59 1.06,25.379 1.06,42.391 0,24.231 -2.19,51.91 -6.79,83.149" /><path
             id="path44"
             style="fill:#222630;fill-opacity:1;fill-rule:nonzero;stroke:none"
             d="m 7654.95,1339.74 c -18.37,2.87 -38.24,5.63 -59.37,7.82 -21.37,2.4 -40.22,3.45 -56.75,3.45 -74.88,0 -133.8,-13.23 -176.78,-39.75 -43.4,-26.66 -65,-69.61 -65,-128.98 0,-39.41 8.26,-69.97 25.04,-91.09 16.65,-21.37 36.63,-36.88 60.3,-46.76 23.55,-9.99 48.59,-16.07 75.24,-18.26 26.65,-2.41 49.73,-3.33 69.61,-3.33 22.74,0 45.59,1.72 68.34,5.52 22.74,3.91 42.39,7.35 59.37,10.45 z m 0,234.78 c 0,36.41 -6.32,66.27 -18.37,88.78 -12.18,22.86 -28.83,40.9 -49.97,53.88 -21.37,12.64 -47.54,21.6 -78.79,26.19 -31.01,4.47 -65.7,6.78 -103.84,6.78 -81.89,0 -169.42,-16.09 -262.11,-47.9 -21.24,39.39 -37.33,76.74 -48.01,111.65 -10.69,34.91 -15.97,76.84 -15.97,125.31 66.97,22.97 134.03,39.85 200.56,50.18 67.18,10.7 129.44,16.09 187.11,16.09 158.38,0 281.52,-38.14 370.53,-114.05 89.03,-75.81 133.35,-197.56 133.35,-364.8 V 842.621 c -53.05,-16.66 -117.61,-32.73 -193.76,-48.019 -76.04,-15.043 -161.96,-22.723 -257.75,-22.723 -77.3,0 -148.28,6.992 -213.07,20.543 -64.55,13.918 -120.03,36.418 -166.32,68.469 -46.28,31.91 -82.24,72.941 -107.16,123.109 -25.04,50.21 -37.68,111.55 -37.68,184.71 0,72.94 15.63,134.05 46.64,183.55 31.23,49.28 71.55,88.9 120.94,118.55 49.28,29.51 104.52,50.88 165.17,63.74 60.88,12.86 121.65,19.42 182.52,19.42 43.88,0 92.7,-2.18 145.98,-6.79 v 27.34" /><path
             id="path46"
             style="fill:#222630;fill-opacity:1;fill-rule:nonzero;stroke:none"
             d="m 8962.68,1077.39 c 18.36,-30.32 33.41,-65.7 45.48,-106.011 12.29,-40.199 18.5,-87.758 18.5,-142.539 -60.88,-24.231 -117.86,-39.75 -171.15,-46.52 -53.19,-7.109 -108.77,-10.441 -166.55,-10.441 -98.79,0 -184.7,15.723 -257.64,46.742 -72.94,31.34 -133.36,74.18 -181.25,128.75 -47.89,54.799 -84.07,119.809 -108.31,195.039 -24.25,75.25 -36.54,156.91 -36.54,245.22 0,86.5 11.97,167.02 35.39,241.45 23.54,74.54 59.38,139.91 107.28,196.29 47.89,56.17 107.5,100.29 178.96,132.33 71.32,31.69 154.15,47.78 248.54,47.78 33.32,0 64.1,-0.8 92.25,-2.18 28.14,-1.73 55.13,-4.59 80.96,-9.3 25.86,-4.61 51.71,-10.45 77.67,-18.15 25.73,-7.46 54.77,-17.45 86.6,-29.52 0,-34.92 -4.71,-74.2 -13.79,-117.51 -9.07,-43.3 -23.65,-84.77 -43.31,-124.28 -45.59,15.17 -85.44,25.28 -119.67,30.78 -34.13,5.18 -73.29,8.05 -117.51,8.05 -94.2,0 -165.17,-31.02 -213.06,-92.47 -48.01,-61.68 -71.9,-149.32 -71.9,-263.27 0,-123.24 25.96,-212.94 77.52,-269 51.68,-56.51 121.64,-84.42 209.63,-84.42 22.96,0 43.63,0.23 62.82,0.92 19.08,0.81 37.57,2.76 55.94,5.87 18.15,3.2 36.89,7.57 55.7,13.53 19.08,6.1 41.47,13.92 67.44,22.86" /></g></g></g></g></svg>