<svg xmlns="http://www.w3.org/2000/svg" xmlns:xlink="http://www.w3.org/1999/xlink" viewBox="0 0 1042 441.17">
  <defs>
    <filter id="b" x="91.06" y="-8412.58" width="29.71" height="32766" filterUnits="userSpaceOnUse" color-interpolation-filters="sRGB">
      <feFlood flood-color="#fff" result="bg"/>
      <feBlend in="SourceGraphic" in2="bg"/>
    </filter>
    <mask id="a" x="91.06" y="-8412.58" width="29.71" height="32766" maskUnits="userSpaceOnUse">
      <g filter="url(#b)"/>
    </mask>
    <linearGradient id="c" x1="91.06" y1="23.46" x2="120.77" y2="23.46" gradientUnits="userSpaceOnUse">
      <stop offset="0.26" stop-color="#fff"/>
      <stop offset="0.29" stop-color="#fdfdfd"/>
      <stop offset="0.31" stop-color="#f5f5f5"/>
      <stop offset="0.32" stop-color="#e7e7e7"/>
      <stop offset="0.33" stop-color="#d4d4d4"/>
      <stop offset="0.35" stop-color="#bababa"/>
      <stop offset="0.36" stop-color="#9c9c9c"/>
      <stop offset="0.36" stop-color="#8a8a8a"/>
      <stop offset="0.37" stop-color="#949494"/>
      <stop offset="0.39" stop-color="#b5b5b5"/>
      <stop offset="0.41" stop-color="#d0d0d0"/>
      <stop offset="0.44" stop-color="#e5e5e5"/>
      <stop offset="0.47" stop-color="#f4f4f4"/>
      <stop offset="0.5" stop-color="#fcfcfc"/>
      <stop offset="0.56" stop-color="#fff"/>
      <stop offset="0.64" stop-color="#fcfcfc"/>
      <stop offset="0.69" stop-color="#f4f4f4"/>
      <stop offset="0.73" stop-color="#e6e6e6"/>
      <stop offset="0.77" stop-color="#d2d2d2"/>
      <stop offset="0.81" stop-color="#b7b7b7"/>
      <stop offset="0.84" stop-color="#989898"/>
      <stop offset="0.86" stop-color="gray"/>
      <stop offset="0.87" stop-color="#9e9e9e"/>
      <stop offset="0.9" stop-color="#c1c1c1"/>
      <stop offset="0.92" stop-color="#dcdcdc"/>
      <stop offset="0.95" stop-color="#efefef"/>
      <stop offset="0.97" stop-color="#fbfbfb"/>
      <stop offset="1" stop-color="#fff"/>
    </linearGradient>
    <filter id="e" x="91.06" y="21.69" width="34.21" height="3.54" filterUnits="userSpaceOnUse" color-interpolation-filters="sRGB">
      <feFlood flood-color="#fff" result="bg"/>
      <feBlend in="SourceGraphic" in2="bg"/>
    </filter>
    <mask id="d" x="91.06" y="21.69" width="34.21" height="3.54" maskUnits="userSpaceOnUse">
      <g mask="url(#a)" filter="url(#e)">
        <path d="M119,25.23H92.83a1.77,1.77,0,0,1,0-3.54H119a1.77,1.77,0,0,1,0,3.54ZM92.83,21.72a1.74,1.74,0,0,0,0,3.48H119a1.74,1.74,0,0,0,0-3.48Z" fill="url(#c)" style="mix-blend-mode: multiply"/>
      </g>
    </mask>
  </defs>
  <title>clients</title>
  <g>
    <g>
      <g>
        <rect width="216.08" height="441.17" rx="23.99" ry="23.99" fill="#ddd"/>
        <rect x="9" y="45" width="198" height="342" fill="#222"/>
        <path d="M123.5,25.21H92.83a1.75,1.75,0,0,1-1.75-1.75h0a1.75,1.75,0,0,1,1.75-1.75H123.5a1.75,1.75,0,0,1,1.75,1.75h0A1.75,1.75,0,0,1,123.5,25.21Z"/>
        <g mask="url(#d)">
          <path d="M123.5,25.23H92.83a1.77,1.77,0,0,1,0-3.54H123.5a1.77,1.77,0,0,1,0,3.54ZM92.83,21.72a1.74,1.74,0,0,0,0,3.48H123.5a1.74,1.74,0,0,0,0-3.48Z" fill="#555"/>
        </g>
        <rect x="90.07" y="398.08" width="33.35" height="28.85" rx="4.36" ry="4.36" fill="#aaa"/>
      </g>
      <rect x="27.45" y="63.45" width="161.1" height="162" rx="9" ry="9" fill="none" stroke="#e65d13" stroke-miterlimit="10" stroke-width="2.7" stroke-dasharray="2.7 2.7"/>
      <path d="M112.68,152.13H103.2l-1.78,6.62H95.74l8.9-28.61h6.75l8.86,28.61h-5.8ZM111.56,148l-3.64-13.66L104.27,148Z" fill="#e65d13"/>
      <rect x="27.45" y="243.45" width="161.1" height="125.1" rx="9" ry="9" fill="none" stroke="#f7b538" stroke-miterlimit="10" stroke-width="2.7" stroke-dasharray="2.7 2.7"/>
      <path d="M118.29,312.07c0,6.29-5,8.24-12,8.24H97.71V291.69h7.49c7.37,0,11.84,2.07,11.84,7.29a6.24,6.24,0,0,1-5.3,6.17C115,305.77,118.29,307.3,118.29,312.07Zm-15.11-16.35v7.74h3.35c3,0,4.93-1.32,4.93-4,0-2.9-2-3.73-5.71-3.73Zm9.4,16.15c0-3.44-2.44-4.6-5.63-4.6h-3.77v8.94h3.19C110,316.21,112.58,315.46,112.58,311.86Z" fill="#f7b538"/>
    </g>
    <g>
      <g>
        <path d="M703.26,281v-206a10,10,0,0,0-10-10H377.38a10,10,0,0,0-10,10V281Z" fill="#bbb"/>
        <rect x="377.3" y="76.02" width="317.29" height="194.43" fill="#222"/>
        <path d="M703,284.56H367.35l-52.68,80.11v4.57s0,6.88,15.29,6.88H740.4c15.28,0,15.28-6.88,15.28-6.88v-4.57Z" fill="#777"/>
        <path d="M755.23,362.29,703,281H367.35l-52.22,81.24S310.61,372.6,330,372.6H740.4C759.74,372.6,755.23,362.29,755.23,362.29Z" fill="#ddd"/>
        <path d="M484.15,300.94h15.19l-.69,5.95h-15.5Q483.64,303.91,484.15,300.94Z" fill="#444"/>
        <path d="M475.66,299.47h15.11l.86-5.89h-14.8Z" fill="#444"/>
        <path d="M471.66,315.77h-16l-1.51,6h16.28Z" fill="#444"/>
        <path d="M494.13,299.47h15.11q.24-2.95.49-5.89h-14.8Z" fill="#444"/>
        <path d="M464.2,306.89h15.5l1.07-5.95H465.58Z" fill="#444"/>
        <path d="M452.15,315.77h-16l-1.89,6h16.28Z" fill="#444"/>
        <path d="M502.09,306.89h15.5l.31-5.95H502.71Q502.4,303.92,502.09,306.89Z" fill="#444"/>
        <path d="M531.07,299.47h15.11q-.14-2.95-.27-5.89h-14.8Q531.1,296.53,531.07,299.47Z" fill="#444"/>
        <path d="M464.43,308.36H448.85l-1.69,6h15.89Z" fill="#444"/>
        <path d="M540,306.89h15.5q-.23-3-.45-5.95H539.84Q539.91,303.92,540,306.89Z" fill="#444"/>
        <path d="M521,306.89h15.5q0-3-.07-5.95H521.28Z" fill="#444"/>
        <path d="M512.6,299.47h15.11q.05-2.95.11-5.89H513Q512.81,296.53,512.6,299.47Z" fill="#444"/>
        <path d="M502.51,308.36H486.93q-.47,3-.92,6h15.89Z" fill="#444"/>
        <path d="M549.71,315.77h-16q0,3,0,6H550Q549.87,318.75,549.71,315.77Z" fill="#444"/>
        <path d="M559.62,308.36H544l.22,6h15.89Q559.89,311.34,559.62,308.36Z" fill="#444"/>
        <path d="M569.23,315.77h-16q.2,3,.4,6h16.28Z" fill="#444"/>
        <path d="M540.58,308.36H525q-.08,3-.16,6h15.89Z" fill="#444"/>
        <path d="M573.59,300.94H558.4l.52,5.95h15.5Z" fill="#444"/>
        <path d="M491.17,315.77h-16l-1.13,6h16.28Q490.76,318.75,491.17,315.77Z" fill="#444"/>
        <path d="M530.2,315.77h-16q-.19,3-.37,6h16.27Q530.17,318.75,530.2,315.77Z" fill="#444"/>
        <path d="M578.67,308.36H563.09l.6,6h15.89Q579.12,311.34,578.67,308.36Z" fill="#444"/>
        <path d="M588.75,315.77h-16l.78,6h16.28Z" fill="#444"/>
        <path d="M521.55,308.36H506l-.54,6h15.89Q521.43,311.34,521.55,308.36Z" fill="#444"/>
        <path d="M510.69,315.77h-16l-.75,6h16.28Z" fill="#444"/>
        <path d="M374.6,321.73h16.27l2.73-6h-16Z" fill="#444"/>
        <path d="M648,308.36H633.3l2,6h15Z" fill="#444"/>
        <path d="M587.61,287.49H576.66c.24,1.54.49,3.08.73,4.61h11.13Q588.06,289.8,587.61,287.49Z" fill="#444"/>
        <path d="M640,287.49H626.27l1.56,4.61h13.94Z" fill="#444"/>
        <path d="M642.33,293.58h-14l2,5.89h14.3Z" fill="#444"/>
        <path d="M445.39,308.36H429.81l-2.07,6h15.89Z" fill="#444"/>
        <path d="M601.13,287.49H590.19l1,4.61h11.13Z" fill="#444"/>
        <path d="M645.18,300.94H630.8l2,5.95h14.67Z" fill="#444"/>
        <path d="M658.56,293.58H645l2.33,5.89h13.88Z" fill="#444"/>
        <path d="M668.41,315.77H653.74l2.36,6h15Z" fill="#444"/>
        <path d="M655.85,287.49h-13.3l1.82,4.61H657.9Z" fill="#444"/>
        <path d="M661.82,300.94h-14l2.36,5.95h14.24Z" fill="#444"/>
        <path d="M665.12,308.36H650.81l2.36,6h14.6Z" fill="#444"/>
        <path d="M650.91,315.77H635.8l2,6h15.41Z" fill="#444"/>
        <path d="M420.25,299.47h15.11l2-5.89H422.55Z" fill="#444"/>
        <path d="M413.12,315.77h-16l-2.66,6h16.28Z" fill="#444"/>
        <path d="M407.36,306.89h15.5l2.22-6H409.89Z" fill="#444"/>
        <path d="M426.35,308.36H410.77l-2.45,6h15.89Z" fill="#444"/>
        <path d="M432.63,315.77h-16l-2.27,6h16.27Z" fill="#444"/>
        <path d="M445.25,306.89h15.5l1.45-6H447Z" fill="#444"/>
        <path d="M406.51,300.94H391.32l-2.91,6h15.5Z" fill="#444"/>
        <path d="M401.17,293.58h-14.8l-3.06,5.89h15.11Z" fill="#444"/>
        <path d="M426.3,306.89h15.5l1.84-6H428.45Z" fill="#444"/>
        <path d="M438.72,299.47h15.11l1.62-5.89h-14.8Z" fill="#444"/>
        <path d="M407.31,308.36H391.73l-2.83,6h15.89Z" fill="#444"/>
        <path d="M483.46,308.36H467.89l-1.3,6h15.89Q483,311.34,483.46,308.36Z" fill="#444"/>
        <path d="M593.45,321.73h38q-.94-3-1.88-6H592.29Q592.87,318.75,593.45,321.73Z" fill="#444"/>
        <path d="M596.81,306.89h4c.11.49.22,1,.34,1.47l1.36,6h26.6l-1.89-6c-.15-.49-.31-1-.46-1.47l-1.42-4.49-.46-1.46H595.54Z" fill="#444"/>
        <path d="M570.33,329.22H587l-1-6H569.62Q570,326.21,570.33,329.22Z" fill="#444"/>
        <path d="M586.49,299.47h37.94l-1.87-5.89H585.4Z" fill="#444"/>
        <path d="M597.7,308.36H582.13l1,6H599Q598.35,311.34,597.7,308.36Z" fill="#444"/>
        <path d="M550,329.22h16.67l-.63-6H549.64Z" fill="#444"/>
        <path d="M366.59,329.22h16.67l2.83-6H369.73Z" fill="#444"/>
        <path d="M640.33,329.22h37l-2.73-6H638.3Z" fill="#444"/>
        <path d="M387,329.22h16.67l2.45-6H389.73Z" fill="#444"/>
        <path d="M407.34,329.22H424l2.06-6H409.71Z" fill="#444"/>
        <path d="M350.22,329.22h12.67l3.22-6H353.68Z" fill="#444"/>
        <path d="M529.58,329.22h16.67q-.12-3-.25-6H529.65Q529.61,326.21,529.58,329.22Z" fill="#444"/>
        <path d="M427.71,329.22h98.17q.07-3,.14-6H429.7Z" fill="#444"/>
        <path d="M688,314.31h19.31l-3.42-6H685Z" fill="#444"/>
        <path d="M691.79,321.73l.24.47.51,1,3.07,6h20.26l-3.46-6-.84-1.47-3.42-6h-19.4Z" fill="#444"/>
        <path d="M684.21,306.89H703l-3.42-5.95H681.18Z" fill="#444"/>
        <path d="M680.43,299.47h18.36l-3.38-5.89h-18Z" fill="#444"/>
        <path d="M674.31,287.49l2.36,4.61h17.89l-2.65-4.61Z" fill="#444"/>
        <path d="M674,321.73h15l-3-6H671.25Z" fill="#444"/>
        <path d="M670.59,314.31h14.6l-3-6H667.89Z" fill="#444"/>
        <path d="M680.31,329.22h12.35l-3-6H677.52Z" fill="#444"/>
        <path d="M663.86,299.47h13.88l-3-5.89h-13.6Z" fill="#444"/>
        <path d="M667.22,306.89h14.24l-3-5.95h-14Z" fill="#444"/>
        <path d="M660.52,292.11h13.53l-2.32-4.61h-13.3Q659.48,289.8,660.52,292.11Z" fill="#444"/>
        <path d="M604.88,292.11h17.21l-1.46-4.61H603.7Z" fill="#444"/>
        <path d="M517.53,287.49H507.26l-.43,4.61h10.43C517.36,290.57,517.44,289,517.53,287.49Z" fill="#444"/>
        <path d="M501.63,287.49H490.39c-.24,1.54-.48,3.08-.71,4.61h11.43Z" fill="#444"/>
        <path d="M546,287.49H534.33c0,1.54,0,3.08,0,4.61H546.2C546.13,290.57,546.06,289,546,287.49Z" fill="#444"/>
        <path d="M531.76,287.49H520.1c-.07,1.54-.14,3.08-.22,4.61h11.85C531.74,290.57,531.75,289,531.76,287.49Z" fill="#444"/>
        <path d="M487.81,287.49H476.87l-.94,4.61h11.13Z" fill="#444"/>
        <path d="M457.19,299.47H472.3l1.24-5.89h-14.8Z" fill="#444"/>
        <path d="M558.07,287.49h-9.51c.09,1.54.17,3.08.26,4.61h9.67C558.35,290.57,558.21,289,558.07,287.49Z" fill="#444"/>
        <path d="M568,299.47h15.11q-.51-2.95-1-5.89H567.3Q567.66,296.53,568,299.47Z" fill="#444"/>
        <path d="M474.29,287.49H463.35l-1.16,4.61h11.13Z" fill="#444"/>
        <path d="M577.86,306.89h15.5q-.61-3-1.21-5.95H577Z" fill="#444"/>
        <path d="M574.09,287.49H563.71c.17,1.54.34,3.08.51,4.61h10.55C574.55,290.57,574.32,289,574.09,287.49Z" fill="#444"/>
        <path d="M549.54,299.47h15.11l-.65-5.89h-14.8Q549.38,296.53,549.54,299.47Z" fill="#444"/>
        <path d="M388.27,308.36H362.2l-3.42,6h26.59Z" fill="#444"/>
        <path d="M392.1,287.49H374.18l-2.65,4.61h18.22Z" fill="#444"/>
        <path d="M405.62,287.49H394.67l-2.31,4.61h11.13Z" fill="#444"/>
        <path d="M460.78,287.49H449.1l-1.4,4.61h11.87Z" fill="#444"/>
        <path d="M374.09,315.77H357.94l-3.42,6H371Z" fill="#444"/>
        <path d="M387.95,300.94H366.46l-3.42,6H385Z" fill="#444"/>
        <path d="M383.08,293.58H370.69l-3.39,5.89H380Z" fill="#444"/>
        <path d="M418.07,287.49h-9.87l-2.08,4.61h10Z" fill="#444"/>
        <path d="M430.52,287.49h-9.88l-1.88,4.61h10Z" fill="#444"/>
        <path d="M419.27,293.58h-14.8l-2.68,5.89h15.11Z" fill="#444"/>
        <path d="M443.47,287.49H433.09l-1.67,4.61H442Z" fill="#444"/>
        <path d="M603.67,328.51H590.58q-.48-2.66-1-5.31h12.87Q603.08,325.86,603.67,328.51Z" fill="#444"/>
        <path d="M617.21,323.2H604.34q.6,2.66,1.21,5.31h13.09Z" fill="#444"/>
        <path d="M631.93,323.2H619.07q.73,2.66,1.46,5.31h13.09Z" fill="#444"/>
        <path d="M603.83,329.22H590.7q.48,2.66,1,5.32H605Q604.41,331.88,603.83,329.22Z" fill="#444"/>
        <path d="M618.83,329.22H605.71l1.22,5.32h13.34Z" fill="#444"/>
        <path d="M633.84,329.22H620.73l1.47,5.32h13.33Z" fill="#444"/>
        <path d="M529.88,332.18H423.44L413,362.93H529.58Q529.73,347.55,529.88,332.18Z" fill="#b5b5b5"/>
      </g>
      <rect x="396.14" y="92.88" width="162" height="162" rx="9" ry="9" fill="none" stroke="#e65d13" stroke-miterlimit="10" stroke-width="2.7" stroke-dasharray="2.7 2.7"/>
      <path d="M481.82,181.56h-9.48l-1.78,6.62h-5.67l8.9-28.61h6.75l8.86,28.61h-5.8Zm-1.12-4.14-3.64-13.66-3.64,13.66Z" fill="#e65d13"/>
      <rect x="576.14" y="92.88" width="99" height="71.1" rx="9" ry="9" fill="none" stroke="#f7b538" stroke-miterlimit="10" stroke-width="2.7" stroke-dasharray="2.71 2.71"/>
      <path d="M635.93,134.49c0,6.29-5,8.24-12,8.24h-8.61V114.12h7.49c7.37,0,11.84,2.07,11.84,7.29a6.24,6.24,0,0,1-5.3,6.17C632.66,128.2,635.93,129.73,635.93,134.49Zm-15.11-16.35v7.74h3.35c3,0,4.93-1.32,4.93-4,0-2.9-2-3.73-5.71-3.73Zm9.4,16.15c0-3.44-2.44-4.6-5.63-4.6h-3.77v8.94H624C627.6,138.63,630.21,137.89,630.21,134.28Z" fill="#f7b538"/>
      <rect x="576.14" y="181.98" width="99" height="72" rx="8.1" ry="8.1" fill="none" stroke="#5bc0eb" stroke-miterlimit="10" stroke-width="2.7" stroke-dasharray="2.69 2.69"/>
      <path d="M635.91,206.07l-2.77,3.23a8.25,8.25,0,0,0-5.3-2c-4,0-7,2.9-7,10.64,0,7.54,3,10.6,7,10.6a9.27,9.27,0,0,0,5.84-2.32l2.57,3.23a12,12,0,0,1-8.61,3.48c-7.41,0-12.59-5.26-12.59-15S620.5,203,627.54,203A12,12,0,0,1,635.91,206.07Z" fill="#5bc0eb"/>
    </g>
    <g>
      <g>
        <path d="M1004,314.29H873.16c16.39,18.8,17.53,25.07,22.17,51.4a19.1,19.1,0,0,0,3.6,8.24c.95,1.25,5.88,9.36,16.51,9.36h65.18c10.64,0,15.57-8.13,16.51-9.36a19.1,19.1,0,0,0,3.6-8.24c5.65-32,8.63-35.87,22.17-51.4Z" fill="#aaa"/>
        <path d="M1004,126.88H873.16c16.39-18.8,17.53-25.07,22.17-51.4a19.1,19.1,0,0,1,3.6-8.24c.95-1.25,5.88-9.36,16.51-9.36h65.18c10.64,0,15.57,8.13,16.51,9.36a19.1,19.1,0,0,1,3.6,8.24c5.65,32,8.63,35.87,22.17,51.4Z" fill="#aaa"/>
        <rect x="1025.86" y="219.96" width="10.86" height="48.37" rx="3.77" ry="3.77" fill="#888"/>
        <rect x="1031.14" y="170.05" width="10.86" height="34.24" rx="3.77" ry="3.77" fill="#888"/>
        <rect x="862.62" y="120.55" width="170.84" height="199.99" rx="28.27" ry="28.27" fill="#e5e5e5"/>
        <rect x="868.25" y="126.81" width="159.59" height="187.48" rx="24.35" ry="24.35" fill="#222"/>
      </g>
      <rect x="889.76" y="148.83" width="116.1" height="142.2" rx="12.54" ry="12.54" fill="none" stroke="#e65d13" stroke-miterlimit="10" stroke-width="2.7" stroke-dasharray="2.69 2.69"/>
      <path d="M952.49,227.62H943l-1.78,6.62h-5.67l8.9-28.61h6.75l8.86,28.61h-5.8Zm-1.12-4.14-3.64-13.66-3.64,13.66Z" fill="#e65d13"/>
    </g>
  </g>
</svg>
