<svg xmlns="http://www.w3.org/2000/svg" viewBox="0 0 490.03 345.61">
  <title>laptop-zones</title>
  <g>
    <g>
      <path d="M431.77,240V11.15A11.15,11.15,0,0,0,420.62,0H69.68A11.15,11.15,0,0,0,58.53,11.15V240Z" fill="#bbb"/>
      <rect x="69.6" y="12.18" width="352.55" height="216.03" fill="#222"/>
      <path d="M431.49,243.89h-373L0,332.9V338s0,7.64,17,7.64H473c17,0,17-7.64,17-7.64V332.9Z" fill="#777"/>
      <path d="M489.52,330.25l-58-90.26h-373l-58,90.26s-5,11.46,16.48,11.46H473C494.53,341.72,489.52,330.25,489.52,330.25Z" fill="#ddd"/>
      <path d="M188.31,262.09h16.87q-.38,3.31-.77,6.61H187.2Q187.75,265.39,188.31,262.09Z" fill="#444"/>
      <path d="M178.88,260.46h16.79l1-6.55H180.19Z" fill="#444"/>
      <path d="M174.44,278.57H156.7L155,285.19h18.09Z" fill="#444"/>
      <path d="M199.41,260.46H216.2q.27-3.27.54-6.55H200.29Q199.85,257.19,199.41,260.46Z" fill="#444"/>
      <path d="M166.15,268.7h17.22l1.19-6.61H167.69Z" fill="#444"/>
      <path d="M152.76,278.57H135l-2.1,6.62H151Z" fill="#444"/>
      <path d="M208.25,268.7h17.22l.34-6.61H208.94Q208.59,265.4,208.25,268.7Z" fill="#444"/>
      <path d="M240.45,260.46h16.79q-.15-3.27-.3-6.55H240.5Q240.48,257.19,240.45,260.46Z" fill="#444"/>
      <path d="M166.4,270.33H149.09l-1.87,6.62h17.65Z" fill="#444"/>
      <path d="M250.35,268.7h17.22q-.25-3.31-.5-6.61H250.19Q250.27,265.4,250.35,268.7Z" fill="#444"/>
      <path d="M229.3,268.7h17.22q0-3.31-.08-6.61H229.57Z" fill="#444"/>
      <path d="M219.93,260.46h16.79q.06-3.27.12-6.55H220.4Q220.16,257.19,219.93,260.46Z" fill="#444"/>
      <path d="M208.71,270.33H191.4q-.52,3.31-1,6.62H208Z" fill="#444"/>
      <path d="M261.17,278.57H243.43q0,3.31,0,6.62h18.09Q261.34,281.89,261.17,278.57Z" fill="#444"/>
      <path d="M272.18,270.33H254.87l.24,6.62h17.65Q272.47,273.64,272.18,270.33Z" fill="#444"/>
      <path d="M282.85,278.57H265.11q.22,3.31.44,6.62h18.09Q283.24,281.89,282.85,278.57Z" fill="#444"/>
      <path d="M251,270.33H233.72q-.09,3.31-.18,6.62h17.65Z" fill="#444"/>
      <path d="M287.7,262.09H270.82l.58,6.61h17.23Z" fill="#444"/>
      <path d="M196.12,278.57H178.38l-1.26,6.62h18.09Q195.67,281.89,196.12,278.57Z" fill="#444"/>
      <path d="M239.48,278.57H221.75q-.21,3.31-.41,6.62h18.08Q239.45,281.89,239.48,278.57Z" fill="#444"/>
      <path d="M293.34,270.33H276l.67,6.62h17.66Q293.84,273.64,293.34,270.33Z" fill="#444"/>
      <path d="M304.53,278.57H286.79l.86,6.62h18.09Z" fill="#444"/>
      <path d="M229.87,270.33H212.56q-.3,3.31-.6,6.62h17.65Q229.74,273.64,229.87,270.33Z" fill="#444"/>
      <path d="M217.8,278.57H200.06l-.83,6.62h18.09Z" fill="#444"/>
      <path d="M66.6,285.19H84.68l3-6.62H70Z" fill="#444"/>
      <path d="M370.42,270.33H354l2.23,6.62H373Z" fill="#444"/>
      <path d="M303.27,247.15H291.11c.27,1.71.54,3.42.81,5.13h12.37Q303.77,249.72,303.27,247.15Z" fill="#444"/>
      <path d="M361.46,247.15H346.22l1.73,5.13h15.49Z" fill="#444"/>
      <path d="M364.07,253.91H348.5l2.21,6.55H366.6Q365.34,257.19,364.07,253.91Z" fill="#444"/>
      <path d="M145.25,270.33H127.94l-2.29,6.62H143.3Z" fill="#444"/>
      <path d="M318.3,247.15H306.14l1.06,5.13h12.36Z" fill="#444"/>
      <path d="M367.23,262.09h-16l2.23,6.61h16.3Z" fill="#444"/>
      <path d="M382.11,253.91H367l2.59,6.55H385Z" fill="#444"/>
      <path d="M393.05,278.57h-16.3l2.62,6.62H396Z" fill="#444"/>
      <path d="M379.1,247.15H364.32q1,2.56,2,5.13h15Z" fill="#444"/>
      <path d="M385.73,262.09h-15.5l2.62,6.61h15.82Z" fill="#444"/>
      <path d="M389.39,270.33h-15.9l2.62,6.62h16.22Z" fill="#444"/>
      <path d="M373.61,278.57h-16.8l2.23,6.62h17.12Z" fill="#444"/>
      <path d="M117.32,260.46h16.79l2.22-6.55H119.88Z" fill="#444"/>
      <path d="M109.39,278.57H91.65l-3,6.62h18.09Z" fill="#444"/>
      <path d="M103,268.71h17.22l2.46-6.61H105.81Z" fill="#444"/>
      <path d="M124.1,270.33H106.79l-2.72,6.62h17.65Z" fill="#444"/>
      <path d="M131.07,278.57H113.34l-2.53,6.62h18.08Z" fill="#444"/>
      <path d="M145.1,268.71h17.22l1.61-6.61H147.06Z" fill="#444"/>
      <path d="M102.05,262.09H85.18l-3.24,6.61H99.16Z" fill="#444"/>
      <path d="M96.12,253.91H79.67l-3.4,6.55H93.06Z" fill="#444"/>
      <path d="M124,268.71h17.22l2-6.61H126.43Z" fill="#444"/>
      <path d="M137.84,260.46h16.79l1.8-6.55H140Z" fill="#444"/>
      <path d="M102.94,270.33H85.63l-3.14,6.62h17.65Z" fill="#444"/>
      <path d="M187.55,270.33H170.25l-1.45,6.62h17.65Q187,273.64,187.55,270.33Z" fill="#444"/>
      <path d="M309.76,285.19H352q-1-3.31-2.09-6.62H308.47Q309.11,281.88,309.76,285.19Z" fill="#444"/>
      <path d="M313.5,268.7H318c.12.54.25,1.09.37,1.63l1.51,6.62H349.4l-2.1-6.62c-.17-.54-.34-1.09-.52-1.63l-1.58-5-.51-1.62H312.08Z" fill="#444"/>
      <path d="M284.07,293.51h18.52l-1.13-6.69H283.29Q283.68,290.16,284.07,293.51Z" fill="#444"/>
      <path d="M302,260.46h42.15l-2.08-6.55H300.81Z" fill="#444"/>
      <path d="M314.49,270.33h-17.3l1.09,6.62h17.65Q315.2,273.64,314.49,270.33Z" fill="#444"/>
      <path d="M261.43,293.51H280l-.71-6.69H261.08Z" fill="#444"/>
      <path d="M57.69,293.51H76.21l3.15-6.69H61.19Z" fill="#444"/>
      <path d="M361.85,293.51H403l-3-6.69H359.6Z" fill="#444"/>
      <path d="M80.33,293.51H98.85l2.72-6.69H83.4Z" fill="#444"/>
      <path d="M103,293.51h18.52l2.29-6.69H105.61Z" fill="#444"/>
      <path d="M39.5,293.51H53.58l3.58-6.69H43.35Z" fill="#444"/>
      <path d="M238.8,293.51h18.52q-.14-3.34-.28-6.69H238.87Q238.83,290.16,238.8,293.51Z" fill="#444"/>
      <path d="M125.61,293.51H234.68q.08-3.34.15-6.69h-107Z" fill="#444"/>
      <path d="M414.82,276.95h21.45l-3.8-6.62h-21Z" fill="#444"/>
      <path d="M419,285.19l.27.53.56,1.1,3.41,6.69h22.51l-3.84-6.69-.94-1.63-3.8-6.62H415.65Z" fill="#444"/>
      <path d="M410.61,268.7h20.93l-3.79-6.61H407.24Z" fill="#444"/>
      <path d="M406.4,260.46h20.41L423,253.91h-20Z" fill="#444"/>
      <path d="M399.61,247.15l2.62,5.13h19.88l-2.94-5.13Z" fill="#444"/>
      <path d="M399.21,285.19h16.61l-3.32-6.62H396.21Z" fill="#444"/>
      <path d="M395.47,276.95h16.22l-3.32-6.62h-15.9Z" fill="#444"/>
      <path d="M406.27,293.51H420l-3.36-6.69H403.18Z" fill="#444"/>
      <path d="M388,260.46h15.42l-3.29-6.55H385Z" fill="#444"/>
      <path d="M391.73,268.7h15.82l-3.31-6.61H388.73Z" fill="#444"/>
      <path d="M384.29,252.28h15l-2.57-5.13H382Q383.12,249.71,384.29,252.28Z" fill="#444"/>
      <path d="M322.46,252.28h19.12L340,247.15H321.15Z" fill="#444"/>
      <path d="M225.4,247.15H214l-.48,5.13h11.59C225.21,250.57,225.31,248.86,225.4,247.15Z" fill="#444"/>
      <path d="M207.74,247.15H195.25c-.27,1.71-.53,3.42-.79,5.13h12.7Z" fill="#444"/>
      <path d="M257,247.15H244.08c0,1.71,0,3.42,0,5.13h13.16C257.18,250.57,257.11,248.86,257,247.15Z" fill="#444"/>
      <path d="M241.22,247.15h-13c-.08,1.71-.16,3.42-.24,5.13h13.17C241.2,250.57,241.21,248.86,241.22,247.15Z" fill="#444"/>
      <path d="M192.39,247.15H180.23l-1,5.13h12.36Z" fill="#444"/>
      <path d="M158.36,260.46h16.79l1.38-6.55H160.08Z" fill="#444"/>
      <path d="M270.46,247.15H259.89c.09,1.71.19,3.42.29,5.13h10.75C270.76,250.57,270.61,248.86,270.46,247.15Z" fill="#444"/>
      <path d="M281.5,260.46h16.79q-.57-3.27-1.14-6.55H280.71Q281.1,257.19,281.5,260.46Z" fill="#444"/>
      <path d="M177.37,247.15H165.21l-1.29,5.13h12.36Z" fill="#444"/>
      <path d="M292.44,268.7h17.23q-.68-3.31-1.35-6.61H291.45Z" fill="#444"/>
      <path d="M288.25,247.15H276.72c.19,1.71.38,3.42.57,5.13H289C288.76,250.57,288.5,248.86,288.25,247.15Z" fill="#444"/>
      <path d="M261,260.46h16.79l-.72-6.55H260.6Q260.79,257.19,261,260.46Z" fill="#444"/>
      <path d="M81.78,270.33h-29L49,276.95H78.56Z" fill="#444"/>
      <path d="M86,247.15H66.13l-2.95,5.13H83.43Z" fill="#444"/>
      <path d="M101.06,247.15H88.9l-2.56,5.13H98.7Z" fill="#444"/>
      <path d="M162.35,247.15h-13l-1.56,5.13H161Z" fill="#444"/>
      <path d="M66,278.57H48.08l-3.8,6.62h18.3Z" fill="#444"/>
      <path d="M81.43,262.09H57.55l-3.8,6.61H78.11Z" fill="#444"/>
      <path d="M76,253.91H62.25l-3.76,6.55H72.54Z" fill="#444"/>
      <path d="M114.89,247.15h-11l-2.31,5.13h11.15Z" fill="#444"/>
      <path d="M128.72,247.15h-11l-2.08,5.13h11.16Z" fill="#444"/>
      <path d="M116.22,253.91H99.77l-3,6.55h16.79Z" fill="#444"/>
      <path d="M143.12,247.15H131.58l-1.85,5.13h11.73Z" fill="#444"/>
      <path d="M321.12,292.73H306.57q-.54-3-1.07-5.91h14.3Q320.46,289.78,321.12,292.73Z" fill="#444"/>
      <path d="M336.16,286.82h-14.3q.67,3,1.35,5.91h14.55Z" fill="#444"/>
      <path d="M352.52,286.82H338.23q.81,3,1.62,5.91h14.54Q353.46,289.77,352.52,286.82Z" fill="#444"/>
      <path d="M321.29,293.51H306.71q.54,3,1.07,5.91h14.83Q321.94,296.46,321.29,293.51Z" fill="#444"/>
      <path d="M338,293.51H323.38c.45,2,.9,3.94,1.35,5.91h14.82Z" fill="#444"/>
      <path d="M354.64,293.51H340.07l1.63,5.91h14.81Z" fill="#444"/>
      <path d="M239.13,296.81H120.87L109.21,331H238.8Q239,313.88,239.13,296.81Z" fill="#b5b5b5"/>
    </g>
    <rect x="90.53" y="30.91" width="180" height="180" rx="10" ry="10" fill="none" stroke="#e65d13" stroke-miterlimit="10" stroke-width="3" stroke-dasharray="3 3"/>
    <path d="M185.72,129.44H175.19l-2,7.36h-6.3L176.8,105h7.5l9.84,31.79H187.7Zm-1.24-4.6-4-15.18-4,15.18Z" fill="#e65d13"/>
    <rect x="290.53" y="30.91" width="110" height="79" rx="10" ry="10" fill="none" stroke="#f7b538" stroke-miterlimit="10" stroke-width="3" stroke-dasharray="3.01 3.01"/>
    <path d="M357,77.15c0,7-5.57,9.16-13.3,9.16h-9.57V54.51h8.33c8.19,0,13.16,2.3,13.16,8.1,0,4-2.85,6.21-5.89,6.85C353.32,70.16,357,71.86,357,77.15ZM340.17,59v8.6h3.73c3.31,0,5.47-1.47,5.47-4.46,0-3.22-2.21-4.14-6.35-4.14Zm10.44,17.94c0-3.82-2.71-5.11-6.26-5.11h-4.19v9.94h3.54C347.71,81.75,350.61,80.92,350.61,76.92Z" fill="#f7b538"/>
    <rect x="290.53" y="129.91" width="110" height="80" rx="9" ry="9" fill="none" stroke="#5bc0eb" stroke-miterlimit="10" stroke-width="3" stroke-dasharray="2.99 2.99"/>
    <path d="M356.94,156.68l-3.08,3.59A9.17,9.17,0,0,0,348,158c-4.42,0-7.82,3.22-7.82,11.82,0,8.37,3.31,11.78,7.82,11.78,2.76,0,4.65-1.2,6.49-2.58l2.85,3.59a13.38,13.38,0,0,1-9.57,3.86c-8.24,0-14-5.84-14-16.65s6.07-16.52,13.89-16.52A13.37,13.37,0,0,1,356.94,156.68Z" fill="#5bc0eb"/>
  </g>
</svg>
