<svg xmlns="http://www.w3.org/2000/svg" xmlns:xlink="http://www.w3.org/1999/xlink" viewBox="0 0 921.03 353.77">
  <defs>
    <filter id="b" x="820.77" y="-8368.88" width="23.83" height="32766" filterUnits="userSpaceOnUse" color-interpolation-filters="sRGB">
      <feFlood flood-color="#fff" result="bg"/>
      <feBlend in="SourceGraphic" in2="bg"/>
    </filter>
    <mask id="a" x="820.77" y="-8368.88" width="23.83" height="32766" maskUnits="userSpaceOnUse">
      <g filter="url(#b)"/>
    </mask>
    <linearGradient id="c" x1="820.77" y1="18.81" x2="844.6" y2="18.81" gradientUnits="userSpaceOnUse">
      <stop offset="0.26" stop-color="#fff"/>
      <stop offset="0.29" stop-color="#fdfdfd"/>
      <stop offset="0.31" stop-color="#f5f5f5"/>
      <stop offset="0.32" stop-color="#e7e7e7"/>
      <stop offset="0.33" stop-color="#d4d4d4"/>
      <stop offset="0.35" stop-color="#bababa"/>
      <stop offset="0.36" stop-color="#9c9c9c"/>
      <stop offset="0.36" stop-color="#8a8a8a"/>
      <stop offset="0.37" stop-color="#949494"/>
      <stop offset="0.39" stop-color="#b5b5b5"/>
      <stop offset="0.41" stop-color="#d0d0d0"/>
      <stop offset="0.44" stop-color="#e5e5e5"/>
      <stop offset="0.47" stop-color="#f4f4f4"/>
      <stop offset="0.5" stop-color="#fcfcfc"/>
      <stop offset="0.56" stop-color="#fff"/>
      <stop offset="0.64" stop-color="#fcfcfc"/>
      <stop offset="0.69" stop-color="#f4f4f4"/>
      <stop offset="0.73" stop-color="#e6e6e6"/>
      <stop offset="0.77" stop-color="#d2d2d2"/>
      <stop offset="0.81" stop-color="#b7b7b7"/>
      <stop offset="0.84" stop-color="#989898"/>
      <stop offset="0.86" stop-color="gray"/>
      <stop offset="0.87" stop-color="#9e9e9e"/>
      <stop offset="0.9" stop-color="#c1c1c1"/>
      <stop offset="0.92" stop-color="#dcdcdc"/>
      <stop offset="0.95" stop-color="#efefef"/>
      <stop offset="0.97" stop-color="#fbfbfb"/>
      <stop offset="1" stop-color="#fff"/>
    </linearGradient>
    <filter id="e" x="820.77" y="17.39" width="27.43" height="2.84" filterUnits="userSpaceOnUse" color-interpolation-filters="sRGB">
      <feFlood flood-color="#fff" result="bg"/>
      <feBlend in="SourceGraphic" in2="bg"/>
    </filter>
    <mask id="d" x="820.77" y="17.39" width="27.43" height="2.84" maskUnits="userSpaceOnUse">
      <g mask="url(#a)" filter="url(#e)">
        <path d="M843.18,20.23h-21a1.42,1.42,0,0,1,0-2.84h21a1.42,1.42,0,0,1,0,2.84Zm-21-2.81a1.4,1.4,0,0,0,0,2.79h21a1.4,1.4,0,1,0,0-2.79Z" fill="url(#c)" style="mix-blend-mode: multiply"/>
      </g>
    </mask>
  </defs>
  <title>realtime</title>
  <g>
    <g>
      <path d="M323.39,244.44V73A8.35,8.35,0,0,0,315,64.69H52.19A8.35,8.35,0,0,0,43.84,73v171.4Z" fill="#bbb"/>
      <rect x="52.13" y="73.81" width="264.05" height="161.81" fill="#222"/>
      <path d="M323.18,247.36H43.84L0,314v3.8s0,5.72,12.72,5.72H354.3c12.72,0,12.72-5.72,12.72-5.72V314Z" fill="#777"/>
      <path d="M366.65,312l-43.46-67.61H43.84L.38,312s-3.76,8.58,12.34,8.58H354.3C370.4,320.63,366.65,312,366.65,312Z" fill="#ddd"/>
      <path d="M141,261h12.64l-.57,5h-12.9Q140.63,263.47,141,261Z" fill="#444"/>
      <path d="M134,259.77h12.58l.72-4.9H135Z" fill="#444"/>
      <path d="M130.65,273.34H117.37l-1.26,5h13.55Z" fill="#444"/>
      <path d="M149.35,259.77h12.58q.2-2.45.4-4.9H150Z" fill="#444"/>
      <path d="M124.44,265.95h12.9l.89-5H125.6Z" fill="#444"/>
      <path d="M114.42,273.34H101.13l-1.58,5H113.1Z" fill="#444"/>
      <path d="M156,265.95h12.9l.26-5H156.49Q156.24,263.47,156,265.95Z" fill="#444"/>
      <path d="M180.1,259.77h12.58q-.11-2.45-.22-4.9H180.13Q180.12,257.32,180.1,259.77Z" fill="#444"/>
      <path d="M124.64,267.17h-13l-1.4,5h13.22Z" fill="#444"/>
      <path d="M187.51,265.95h12.9q-.19-2.48-.38-5H187.39Q187.45,263.47,187.51,265.95Z" fill="#444"/>
      <path d="M171.74,265.95h12.9q0-2.48-.06-5H171.95Z" fill="#444"/>
      <path d="M164.73,259.77H177.3q0-2.45.09-4.9H165.08Q164.9,257.32,164.73,259.77Z" fill="#444"/>
      <path d="M156.32,267.17h-13l-.77,5h13.22Z" fill="#444"/>
      <path d="M195.61,273.34H182.32q0,2.48,0,5h13.55Q195.75,275.82,195.61,273.34Z" fill="#444"/>
      <path d="M203.86,267.17h-13l.18,5H204.3Q204.08,269.65,203.86,267.17Z" fill="#444"/>
      <path d="M211.85,273.34H198.56q.17,2.48.33,5h13.55Z" fill="#444"/>
      <path d="M188,267.17h-13q-.07,2.48-.13,5h13.22Z" fill="#444"/>
      <path d="M215.48,261H202.84l.43,5h12.9Z" fill="#444"/>
      <path d="M146.89,273.34H133.61l-.94,5h13.55Q146.55,275.82,146.89,273.34Z" fill="#444"/>
      <path d="M179.37,273.34H166.09q-.15,2.48-.31,5h13.54Q179.35,275.82,179.37,273.34Z" fill="#444"/>
      <path d="M219.71,267.17h-13l.5,5h13.23Z" fill="#444"/>
      <path d="M228.09,273.34H214.81l.65,5H229Z" fill="#444"/>
      <path d="M172.17,267.17h-13l-.45,5H172Q172.07,269.65,172.17,267.17Z" fill="#444"/>
      <path d="M163.13,273.34H149.85l-.62,5h13.55Z" fill="#444"/>
      <path d="M49.88,278.3H63.43l2.27-5H52.41Z" fill="#444"/>
      <path d="M277.44,267.17H265.17l1.67,5h12.51Z" fill="#444"/>
      <path d="M227.15,249.81H218l.6,3.84h9.26Q227.52,251.73,227.15,249.81Z" fill="#444"/>
      <path d="M270.73,249.81H259.32l1.3,3.84h11.6Z" fill="#444"/>
      <path d="M272.69,254.87H261l1.66,4.9h11.9Z" fill="#444"/>
      <path d="M108.79,267.17h-13l-1.72,5h13.22Z" fill="#444"/>
      <path d="M238.4,249.81h-9.11l.79,3.84h9.26Z" fill="#444"/>
      <path d="M275.06,261h-12l1.67,5H277Z" fill="#444"/>
      <path d="M286.19,254.87H274.88l1.94,4.9h11.55Z" fill="#444"/>
      <path d="M294.39,273.34H282.19l2,5h12.45Z" fill="#444"/>
      <path d="M283.94,249.81H272.87l1.52,3.84h11.26Z" fill="#444"/>
      <path d="M288.91,261H277.3l2,5h11.85Z" fill="#444"/>
      <path d="M291.65,267.17H279.74l2,5h12.15Z" fill="#444"/>
      <path d="M279.83,273.34H267.25l1.67,5h12.82Z" fill="#444"/>
      <path d="M87.87,259.77h12.58l1.66-4.9H89.79Z" fill="#444"/>
      <path d="M81.93,273.34H68.65l-2.21,5H80Z" fill="#444"/>
      <path d="M77.14,265.95H90l1.84-5H79.25Z" fill="#444"/>
      <path d="M92.95,267.17H80l-2,5H91.17Z" fill="#444"/>
      <path d="M98.17,273.34H84.89l-1.89,5H96.54Z" fill="#444"/>
      <path d="M108.68,265.95h12.9l1.21-5H110.15Z" fill="#444"/>
      <path d="M76.44,261H63.8l-2.42,5h12.9Z" fill="#444"/>
      <path d="M72,254.87H59.67l-2.54,4.9H69.7Z" fill="#444"/>
      <path d="M92.91,265.95h12.9l1.53-5H94.7Z" fill="#444"/>
      <path d="M103.24,259.77h12.57l1.35-4.9H104.84Z" fill="#444"/>
      <path d="M77.1,267.17h-13l-2.35,5H75Z" fill="#444"/>
      <path d="M140.48,267.17h-13l-1.09,5h13.22Q140.07,269.65,140.48,267.17Z" fill="#444"/>
      <path d="M232,278.3h31.64l-1.57-5H231Q231.52,275.82,232,278.3Z" fill="#444"/>
      <path d="M234.81,265.95h3.34c.09.41.18.82.28,1.22l1.13,5H261.7l-1.57-5-.39-1.22-1.18-3.74-.39-1.21H233.74Z" fill="#444"/>
      <path d="M212.77,284.53h13.87l-.85-5H212.18Q212.48,282,212.77,284.53Z" fill="#444"/>
      <path d="M226.21,259.77h31.57l-1.55-4.9H225.31Z" fill="#444"/>
      <path d="M235.55,267.17h-13l.82,5h13.22Q236.08,269.65,235.55,267.17Z" fill="#444"/>
      <path d="M195.81,284.53h13.87l-.53-5H195.55Z" fill="#444"/>
      <path d="M43.21,284.53H57.08l2.36-5H45.83Z" fill="#444"/>
      <path d="M271,284.53h30.8l-2.27-5H269.33Z" fill="#444"/>
      <path d="M60.17,284.53H74l2-5H62.47Z" fill="#444"/>
      <path d="M77.12,284.53H91l1.72-5H79.1Z" fill="#444"/>
      <path d="M29.59,284.53H40.13l2.68-5H32.47Z" fill="#444"/>
      <path d="M178.86,284.53h13.87q-.1-2.5-.21-5H178.91Q178.88,282,178.86,284.53Z" fill="#444"/>
      <path d="M94.08,284.53h81.69q.06-2.5.11-5H95.74Z" fill="#444"/>
      <path d="M310.7,272.12h16.07l-2.85-5H308.17Z" fill="#444"/>
      <path d="M313.85,278.3l.2.39.42.83,2.56,5h16.86l-2.88-5-.7-1.22-2.85-5H311.32Z" fill="#444"/>
      <path d="M307.54,265.95h15.67l-2.84-5H305Z" fill="#444"/>
      <path d="M304.39,259.77h15.28l-2.82-4.9h-15Z" fill="#444"/>
      <path d="M299.3,249.81l2,3.84h14.89l-2.21-3.84Z" fill="#444"/>
      <path d="M299,278.3h12.44l-2.49-5h-12.2Z" fill="#444"/>
      <path d="M296.2,272.12h12.15l-2.49-5H294Z" fill="#444"/>
      <path d="M304.29,284.53h10.28l-2.51-5H302Z" fill="#444"/>
      <path d="M290.61,259.77h11.55l-2.46-4.9H288.38Z" fill="#444"/>
      <path d="M293.4,265.95h11.85l-2.48-5H291.16Z" fill="#444"/>
      <path d="M287.83,253.65h11.26l-1.93-3.84H286.09Z" fill="#444"/>
      <path d="M241.52,253.65h14.32l-1.22-3.84H240.54Z" fill="#444"/>
      <path d="M168.82,249.81h-8.54l-.36,3.84h8.68C168.68,252.37,168.75,251.09,168.82,249.81Z" fill="#444"/>
      <path d="M155.59,249.81h-9.35l-.59,3.84h9.51Z" fill="#444"/>
      <path d="M192.51,249.81h-9.7c0,1.28,0,2.56,0,3.84h9.86C192.63,252.37,192.57,251.09,192.51,249.81Z" fill="#444"/>
      <path d="M180.67,249.81H171c-.06,1.28-.12,2.56-.18,3.84h9.86C180.66,252.37,180.66,251.09,180.67,249.81Z" fill="#444"/>
      <path d="M144.1,249.81H135l-.78,3.84h9.26Z" fill="#444"/>
      <path d="M118.61,259.77h12.58l1-4.9H119.9Z" fill="#444"/>
      <path d="M202.57,249.81h-7.92c.07,1.28.14,2.56.22,3.84h8C202.8,252.37,202.68,251.09,202.57,249.81Z" fill="#444"/>
      <path d="M210.84,259.77h12.57l-.85-4.9H210.25Z" fill="#444"/>
      <path d="M132.85,249.81h-9.11l-1,3.84H132Z" fill="#444"/>
      <path d="M219,265.95h12.9q-.51-2.48-1-5H218.29Z" fill="#444"/>
      <path d="M215.9,249.81h-8.64l.43,3.84h8.78C216.28,252.37,216.09,251.09,215.9,249.81Z" fill="#444"/>
      <path d="M195.47,259.77H208l-.54-4.9H195.19Q195.33,257.32,195.47,259.77Z" fill="#444"/>
      <path d="M61.26,267.17H39.56l-2.85,5H58.84Z" fill="#444"/>
      <path d="M64.44,249.81H49.53l-2.21,3.84H62.49Z" fill="#444"/>
      <path d="M75.69,249.81H66.58l-1.92,3.84h9.26Z" fill="#444"/>
      <path d="M121.6,249.81h-9.71l-1.17,3.84h9.88Z" fill="#444"/>
      <path d="M49.45,273.34H36l-2.85,5h13.7Z" fill="#444"/>
      <path d="M61,261H43.1l-2.85,5H58.51Z" fill="#444"/>
      <path d="M56.93,254.87H46.62l-2.82,4.9H54.33Z" fill="#444"/>
      <path d="M86.05,249.81H77.84l-1.73,3.84h8.35Z" fill="#444"/>
      <path d="M96.41,249.81H88.19l-1.56,3.84H95Z" fill="#444"/>
      <path d="M87.05,254.87H74.73l-2.23,4.9H85.08Z" fill="#444"/>
      <path d="M107.19,249.81H98.55l-1.39,3.84H106Z" fill="#444"/>
      <path d="M240.51,283.94H229.62q-.4-2.21-.8-4.42h10.71Q240,281.73,240.51,283.94Z" fill="#444"/>
      <path d="M251.78,279.52H241.07l1,4.42H253Z" fill="#444"/>
      <path d="M264,279.52H253.33q.61,2.21,1.22,4.42h10.89Z" fill="#444"/>
      <path d="M240.64,284.53H229.72q.4,2.21.8,4.43h11.11Q241.13,286.74,240.64,284.53Z" fill="#444"/>
      <path d="M253.13,284.53H242.21l1,4.43h11.1Z" fill="#444"/>
      <path d="M265.62,284.53H254.71l1.22,4.43H267Z" fill="#444"/>
      <path d="M179.11,287H90.53L81.8,312.59h97.06Q179,299.79,179.11,287Z" fill="#b5b5b5"/>
    </g>
    <g>
      <rect x="747.75" width="173.27" height="353.77" rx="26.66" ry="26.66" fill="#ddd"/>
      <rect x="754.97" y="36.09" width="158.77" height="274.25" fill="#222"/>
      <path d="M846.79,20.22h-24.6a1.41,1.41,0,0,1-1.41-1.41h0a1.41,1.41,0,0,1,1.41-1.41h24.6a1.41,1.41,0,0,1,1.41,1.41h0A1.41,1.41,0,0,1,846.79,20.22Z"/>
      <g mask="url(#d)">
        <path d="M846.79,20.23h-24.6a1.42,1.42,0,0,1,0-2.84h24.6a1.42,1.42,0,0,1,0,2.84Zm-24.6-2.81a1.4,1.4,0,0,0,0,2.79h24.6a1.4,1.4,0,1,0,0-2.79Z" fill="#555"/>
      </g>
      <rect x="819.98" y="319.22" width="26.74" height="23.13" rx="4.85" ry="4.85" fill="#aaa"/>
    </g>
    <path d="M611.86,183.31a16.26,16.26,0,0,0-4.16-1.68v-43.3A16.23,16.23,0,1,0,592,111.43L554.57,89.82a16.22,16.22,0,1,0-31.1,0L486,111.42a16.23,16.23,0,1,0-15.45,27v43.19a16.24,16.24,0,1,0,15.46,27l37.43,21.61a16.22,16.22,0,1,0,31-.52l37.21-21.48a16.23,16.23,0,1,0,20.23-24.86Zm-121.8,10.23a16,16,0,0,0-4.56-7.9l49-84.87a16.26,16.26,0,0,0,9,0l49,84.86a16.18,16.18,0,0,0-4.56,7.92Zm98.13-75.39a16.19,16.19,0,0,0,11.6,20.16v43.34l-.55.15-49-84.88.43-.43ZM527.36,96.46l.46.46-49,84.88-.34-.1V138.25a16.2,16.2,0,0,0,11.37-20.13ZM551,223.84a16.23,16.23,0,0,0-23.68-.33l-37.46-21.63c0-.15.08-.29.12-.44h98c.08.29.16.59.25.88Z" fill="#e535ab"/>
    <line x1="631.03" y1="160.1" x2="721.03" y2="160.1" fill="none" stroke="#fff" stroke-miterlimit="10" stroke-width="3" stroke-dasharray="6"/>
    <g>
      <rect x="227.03" y="190.1" width="74.57" height="30" rx="14.14" ry="14.14" fill="none" stroke="#fff" stroke-miterlimit="10" stroke-width="2.14"/>
      <circle cx="242.45" cy="205.1" r="8.04" fill="#848484"/>
      <circle cx="263.88" cy="205.1" r="8.04" fill="#848484"/>
      <circle cx="286.6" cy="205.1" r="9.64" fill="#ccc"/>
    </g>
    <g>
      <rect x="827.03" y="267.1" width="74.57" height="30" rx="14.14" ry="14.14" fill="none" stroke="#fff" stroke-miterlimit="10" stroke-width="2.14"/>
      <circle cx="842.45" cy="282.1" r="8.04" fill="#848484"/>
      <circle cx="863.88" cy="282.1" r="8.04" fill="#848484"/>
      <circle cx="886.6" cy="282.1" r="9.64" fill="#ccc"/>
    </g>
    <line x1="351.03" y1="160.1" x2="441.03" y2="160.1" fill="none" stroke="#fff" stroke-miterlimit="10" stroke-width="3" stroke-dasharray="6"/>
    <path d="M79.29,91A8.26,8.26,0,0,0,71,99.24V180.1l16.52-16.52H239a8.26,8.26,0,0,0,8.26-8.26V99.24A8.26,8.26,0,0,0,239,91Z" fill="#f7b538"/>
    <line x1="93.05" y1="110" x2="230.73" y2="110" fill="none" stroke="#222" stroke-miterlimit="10" stroke-width="4"/>
    <line x1="93.05" y1="125.7" x2="203.19" y2="125.7" fill="none" stroke="#222" stroke-miterlimit="10" stroke-width="4"/>
    <line x1="93.05" y1="141.4" x2="170.22" y2="141.4" fill="none" stroke="#222" stroke-miterlimit="10" stroke-width="4"/>
    <path d="M890.74,140.82a8.26,8.26,0,0,1,8.26,8.26v95.86l-16.52-16.52H778a8.26,8.26,0,0,1-8.26-8.26V149.08a8.26,8.26,0,0,1,8.26-8.26Z" fill="#5bc0eb"/>
    <line x1="791.8" y1="159.85" x2="882.48" y2="159.85" fill="#5bc0eb" stroke="#222" stroke-miterlimit="10" stroke-width="4"/>
    <line x1="791.8" y1="175.55" x2="854.94" y2="175.55" fill="#5bc0eb" stroke="#222" stroke-miterlimit="10" stroke-width="4"/>
    <line x1="791.8" y1="191.25" x2="876.97" y2="191.25" fill="#5bc0eb" stroke="#222" stroke-miterlimit="10" stroke-width="4"/>
    <line x1="791.8" y1="206.95" x2="835.86" y2="206.95" fill="#5bc0eb" stroke="#222" stroke-miterlimit="10" stroke-width="4"/>
    <path d="M778,59.1a8.37,8.37,0,0,0-8.26,8.48V130.1l16.52-17H890.74a8.37,8.37,0,0,0,8.26-8.48V67.58a8.37,8.37,0,0,0-8.26-8.48Z" fill="#f7b538"/>
    <line x1="791.8" y1="77.25" x2="876.97" y2="77.25" fill="none" stroke="#222" stroke-miterlimit="10" stroke-width="4"/>
    <line x1="791.8" y1="92.95" x2="835.86" y2="92.95" fill="none" stroke="#222" stroke-miterlimit="10" stroke-width="4"/>
  </g>
</svg>
