<svg xmlns="http://www.w3.org/2000/svg" viewBox="0 0 981 373.2">
  <title>serialization</title>
  <g>
    <rect x="180" y="193.2" width="140" height="70" fill="#445f82"/>
    <rect y="83.2" width="140" height="70" fill="#637045"/>
    <rect x="180" y="303.2" width="140" height="70" fill="#c73e1d"/>
    <g>
      <line x1="140.5" y1="153.7" x2="168.23" y2="182.14" fill="none" stroke="#fff" stroke-miterlimit="10" stroke-width="3"/>
      <polygon points="157.91 187.63 179.5 193.71 173.97 171.96 157.91 187.63" fill="#fff"/>
    </g>
    <g>
      <line x1="250.5" y1="304.2" x2="250.5" y2="279.85" fill="none" stroke="#fff" stroke-miterlimit="10" stroke-width="3"/>
      <polygon points="261.72 283.13 250.5 263.7 239.28 283.13 261.72 283.13" fill="#fff"/>
    </g>
    <g>
      <path d="M51.89,118.87c0,6.13-3.16,9.77-8.29,9.77s-8.31-3.54-8.31-9.77,3.18-9.77,8.31-9.77S51.89,112.6,51.89,118.87Zm-12.42,0c0,4.89,1.54,6.8,4.13,6.8s4.1-1.92,4.1-6.8-1.43-6.8-4.1-6.8S39.47,114,39.47,118.87Z" fill="#fff"/>
      <path d="M63.54,113.71l-.65,3.7a4.78,4.78,0,0,0-1.27-.19c-1.75,0-2.56,1.29-3.08,3.59v7.4H54.71V113.9H58l.35,2.78c.67-2,2.05-3.19,3.73-3.19A5.11,5.11,0,0,1,63.54,113.71Z" fill="#fff"/>
      <path d="M77.57,108.2v20H74.2L74,126.45a4.81,4.81,0,0,1-4.1,2.19c-3.59,0-5.43-3-5.43-7.58s2.27-7.58,5.8-7.58a4.91,4.91,0,0,1,3.48,1.43v-7.13ZM73.74,124v-6.4a3.12,3.12,0,0,0-2.48-1.35c-1.67,0-2.81,1.4-2.81,4.75,0,3.59,1,4.72,2.56,4.72A3.17,3.17,0,0,0,73.74,124Z" fill="#fff"/>
      <path d="M93.16,122.21H84.23c.27,2.75,1.57,3.56,3.4,3.56a5.79,5.79,0,0,0,3.48-1.24l1.59,2.16a8.44,8.44,0,0,1-5.43,1.94c-4.59,0-7-3-7-7.5,0-4.32,2.32-7.67,6.5-7.67s6.45,2.7,6.45,7.26C93.24,121.21,93.19,121.81,93.16,122.21Zm-3.73-2.56c0-2.16-.73-3.56-2.56-3.56-1.51,0-2.46,1-2.64,3.72h5.21Z" fill="#fff"/>
      <path d="M104.71,113.71l-.65,3.7a4.79,4.79,0,0,0-1.27-.19c-1.75,0-2.56,1.29-3.08,3.59v7.4H95.89V113.9h3.32l.35,2.78c.67-2,2.05-3.19,3.72-3.19A5.11,5.11,0,0,1,104.71,113.71Z" fill="#fff"/>
    </g>
    <g>
      <path d="M215.88,225.55c0,4.32-3.08,6.29-7.34,6.29H206.4v6.37h-4V219.53h5.78C213,219.53,215.88,221.47,215.88,225.55Zm-4.1,0c0-2.19-1.3-3.16-3.62-3.16H206.4v6.53h1.81C210.4,228.92,211.77,228.08,211.77,225.55Z" fill="#fff"/>
      <path d="M226.88,223.71l-.65,3.7a4.77,4.77,0,0,0-1.27-.19c-1.76,0-2.56,1.29-3.08,3.59v7.4h-3.83V223.9h3.32l.35,2.78c.68-2,2.05-3.19,3.73-3.19A5.11,5.11,0,0,1,226.88,223.71Z" fill="#fff"/>
      <path d="M241.41,231.05c0,4.54-2.56,7.58-6.86,7.58s-6.86-2.83-6.86-7.58c0-4.56,2.56-7.58,6.88-7.58S241.41,226.3,241.41,231.05Zm-9.72,0c0,3.29,1,4.72,2.86,4.72s2.86-1.46,2.86-4.72-1-4.72-2.83-4.72S231.7,227.79,231.7,231.05Z" fill="#fff"/>
      <path d="M256.59,218.2v20h-3.37l-.22-1.75a4.81,4.81,0,0,1-4.1,2.19c-3.59,0-5.43-3-5.43-7.58s2.27-7.58,5.8-7.58a4.91,4.91,0,0,1,3.48,1.43v-7.13ZM252.76,234v-6.4a3.12,3.12,0,0,0-2.48-1.35c-1.67,0-2.81,1.4-2.81,4.75,0,3.59,1,4.72,2.56,4.72A3.17,3.17,0,0,0,252.76,234Z" fill="#fff"/>
      <path d="M271.81,238.2h-3.32l-.19-1.92a4.8,4.8,0,0,1-4.35,2.35c-2.65,0-4-1.7-4-4.45V223.9h3.83v9.8c0,1.57.51,2.08,1.57,2.08a3.16,3.16,0,0,0,2.62-1.86v-10h3.83Z" fill="#fff"/>
      <path d="M286.1,225.19l-1.67,2.27a4.35,4.35,0,0,0-2.81-1c-1.92,0-3.05,1.38-3.05,4.7s1.21,4.43,3,4.43a4.83,4.83,0,0,0,2.83-1l1.67,2.4a7.18,7.18,0,0,1-4.7,1.67c-4.26,0-6.88-2.92-6.88-7.48s2.64-7.69,6.83-7.69A6.87,6.87,0,0,1,286.1,225.19Z" fill="#fff"/>
      <path d="M297.57,237.53a6.76,6.76,0,0,1-3.72,1.11c-3,0-4.48-1.73-4.48-4.91V226.6h-2.13v-2.7h2.13v-3.13l3.83-.46v3.59h3.29l-.38,2.7h-2.92v7c0,1.4.46,1.94,1.43,1.94a3.36,3.36,0,0,0,1.62-.49Z" fill="#fff"/>
    </g>
    <g>
      <path d="M213.83,341.51h-2v7.32h-4V330.15h5.83c5,0,7.53,1.81,7.53,5.59,0,2.48-1.21,4-3.7,5l4.83,8h-4.51Zm-2-2.81h2.08c2.08,0,3.21-.86,3.21-3,0-1.92-1.11-2.75-3.51-2.75h-1.78Z" fill="#fff"/>
      <path d="M235.93,342.83H227c.27,2.75,1.57,3.56,3.4,3.56a5.78,5.78,0,0,0,3.48-1.24l1.59,2.16a8.44,8.44,0,0,1-5.43,1.94c-4.59,0-7-3-7-7.5,0-4.32,2.32-7.67,6.5-7.67s6.45,2.7,6.45,7.26C236,341.83,236,342.43,235.93,342.83Zm-3.73-2.56c0-2.16-.73-3.56-2.56-3.56-1.51,0-2.46,1-2.65,3.73h5.21Z" fill="#fff"/>
      <path d="M245.82,348.83h-4.56l-4.67-14.31h4.16l2.83,11.31,2.89-11.31h3.94Z" fill="#fff"/>
      <path d="M256.47,329.39a2.34,2.34,0,1,1-2.35-2.24A2.23,2.23,0,0,1,256.47,329.39Zm-.4,19.44h-3.83V334.52h3.83Z" fill="#fff"/>
      <path d="M271.53,342.83H262.6c.27,2.75,1.57,3.56,3.4,3.56a5.78,5.78,0,0,0,3.48-1.24l1.59,2.16a8.44,8.44,0,0,1-5.43,1.94c-4.59,0-7-3-7-7.5,0-4.32,2.32-7.67,6.5-7.67s6.45,2.7,6.45,7.26C271.61,341.83,271.56,342.43,271.53,342.83Zm-3.73-2.56c0-2.16-.73-3.56-2.56-3.56-1.51,0-2.46,1-2.65,3.73h5.21Z" fill="#fff"/>
      <path d="M289.11,348.83h-4.67l-2.05-10.88-2.05,10.88h-4.62l-3.13-14.31h3.86L278.21,346l2.38-11.47h3.83L286.55,346l1.94-11.47h3.67Z" fill="#fff"/>
    </g>
    <text transform="translate(83.29 30.46)" font-size="36" fill="#fff" font-family="FiraSans-SemiBold, Fira Sans" font-weight="700"><tspan letter-spacing="-0.01em">D</tspan><tspan x="22.89" y="0" letter-spacing="-0.01em">a</tspan><tspan x="42.22" y="0" letter-spacing="0em">t</tspan><tspan x="56.04" y="0" letter-spacing="-0.01em">a</tspan><tspan x="75.27" y="0" letter-spacing="-0.01em">b</tspan><tspan x="96.4" y="0" letter-spacing="0.01em">a</tspan><tspan x="116.43" y="0" letter-spacing="0em">s</tspan><tspan x="133.59" y="0">e</tspan></text>
    <g>
      <path d="M431.45,128.2l11.87-24.58,2.46,1.15-11.84,24.56Z" fill="#fff"/>
      <path d="M459.08,118.94c0,4.7-2.41,7.78-6.69,7.78s-6.69-3-6.69-7.76c0-4.62,2.41-7.78,6.72-7.78S459.08,114.23,459.08,118.94ZM449,119c0,3.67,1.12,5.35,3.39,5.35s3.39-1.68,3.39-5.38-1.12-5.32-3.36-5.32S449,115.3,449,119Z" fill="#fff"/>
      <path d="M474.84,111.57l-.53,5.46h-2.24v-3c-2.07.06-3.64,1.74-4.48,4.62v5.49h3v2.24h-8.29v-2.24h2.18v-10.3h-2.18v-2.24h4.56l.56,3.42c1.12-2.46,2.66-3.78,5.21-3.78A6.72,6.72,0,0,1,474.84,111.57Z" fill="#fff"/>
      <path d="M490.39,105.64v20.72h-2.77l-.22-1.82a4.9,4.9,0,0,1-4.14,2.18c-3.81,0-5.57-3.11-5.57-7.76s2.21-7.78,5.85-7.78a4.77,4.77,0,0,1,3.72,1.62v-7.53ZM481,119c0,3.78,1.12,5.38,3.08,5.38a3.84,3.84,0,0,0,3.16-2.13v-7a3.5,3.5,0,0,0-2.91-1.65C482.24,113.59,481,115.27,481,119Z" fill="#fff"/>
      <path d="M501.69,124.28a6.75,6.75,0,0,0,3.89-1.29l1.34,1.9a8.58,8.58,0,0,1-5.38,1.82c-4.62,0-7.14-3.14-7.14-7.76,0-4.42,2.55-7.78,6.75-7.78,3.92,0,6.38,2.8,6.38,7.39a10.21,10.21,0,0,1-.08,1.4h-9.8C497.86,123,499.56,124.28,501.69,124.28Zm-4.06-6.44h6.86c-.06-2.8-1.2-4.34-3.3-4.34S497.83,114.88,497.63,117.84Z" fill="#fff"/>
      <path d="M523.55,111.57,523,117h-2.24v-3c-2.07.06-3.64,1.74-4.48,4.62v5.49h3v2.24H511v-2.24h2.18v-10.3H511v-2.24h4.56l.56,3.42c1.12-2.46,2.66-3.78,5.21-3.78A6.71,6.71,0,0,1,523.55,111.57Z" fill="#fff"/>
      <path d="M535.45,122.35c0-1.2-.48-1.76-3.53-2.55S527,118,527,115.44s2.27-4.26,5.91-4.26a9.22,9.22,0,0,1,5.63,1.71l-1.34,2a7.34,7.34,0,0,0-4.2-1.32c-2,0-2.8.64-2.8,1.62s.81,1.54,3.75,2.35,4.79,1.79,4.79,4.59c0,3.22-3.14,4.59-6.52,4.59a9,9,0,0,1-6.08-2.07l1.65-1.9a7.09,7.09,0,0,0,4.42,1.6C534.22,124.34,535.45,123.58,535.45,122.35Z" fill="#fff"/>
      <path d="M540.69,128.2l11.87-24.58,2.46,1.15-11.84,24.56Z" fill="#fff"/>
    </g>
    <g>
      <path d="M431.45,238.2l11.87-24.58,2.46,1.15-11.84,24.56Z" fill="#fff"/>
      <path d="M459.9,228.94c0,4.51-2,7.78-5.71,7.78a4.74,4.74,0,0,1-3.75-1.62V242l-3.13.36V221.57H450l.2,1.9a5.31,5.31,0,0,1,4.31-2.3C458.42,221.18,459.9,224.23,459.9,228.94Zm-9.46-3.22v6.92a3.41,3.41,0,0,0,2.91,1.65c2.13,0,3.25-1.62,3.25-5.32s-1-5.38-2.94-5.38A4,4,0,0,0,450.44,225.72Z" fill="#fff"/>
      <path d="M475.78,221.57l-.53,5.46H473v-3c-2.07.06-3.64,1.74-4.48,4.62v5.49h3v2.24h-8.29v-2.24h2.18v-10.3h-2.18v-2.24h4.56l.56,3.42c1.12-2.46,2.66-3.78,5.21-3.78A6.71,6.71,0,0,1,475.78,221.57Z" fill="#fff"/>
      <path d="M492.05,228.94c0,4.7-2.41,7.78-6.69,7.78s-6.69-3-6.69-7.76c0-4.62,2.41-7.78,6.72-7.78S492.05,224.23,492.05,228.94ZM482,229c0,3.67,1.12,5.35,3.39,5.35s3.39-1.68,3.39-5.38-1.12-5.32-3.36-5.32S482,225.3,482,229Z" fill="#fff"/>
      <path d="M508,215.64v20.72h-2.77l-.22-1.82a4.9,4.9,0,0,1-4.14,2.18c-3.81,0-5.57-3.11-5.57-7.76s2.21-7.78,5.85-7.78a4.77,4.77,0,0,1,3.72,1.62v-7.53ZM498.64,229c0,3.78,1.12,5.38,3.08,5.38a3.84,3.84,0,0,0,3.16-2.13v-7a3.5,3.5,0,0,0-2.91-1.65C499.87,223.59,498.64,225.27,498.64,229Z" fill="#fff"/>
      <path d="M515.85,231.9c0,1.74.7,2.44,2.1,2.44a4.34,4.34,0,0,0,3.44-2.07v-10.7h3.14v14.78h-2.72l-.2-1.9a5.82,5.82,0,0,1-4.65,2.27c-2.88,0-4.26-1.65-4.26-4.42V221.57h3.13Z" fill="#fff"/>
      <path d="M539.73,232.88l1.43,2a8.24,8.24,0,0,1-5.18,1.82c-4.56,0-7.2-3.05-7.2-7.67s2.69-7.87,7.25-7.87a7.77,7.77,0,0,1,5.12,1.79l-1.46,2a6.38,6.38,0,0,0-3.61-1.23c-2.35,0-4,1.65-4,5.35s1.68,5.1,4,5.1A6.49,6.49,0,0,0,539.73,232.88Z" fill="#fff"/>
      <path d="M553.27,236.72c-3.44,0-5.26-1.93-5.26-4.84v-8h-3.28v-2.3H548v-3.3l3.14-.36v3.67h5l-.37,2.3h-4.65v8c0,1.6.76,2.35,2.58,2.35a5.61,5.61,0,0,0,2.74-.7l1.12,2.07A8.21,8.21,0,0,1,553.27,236.72Z" fill="#fff"/>
      <path d="M570.15,232.35c0-1.2-.48-1.76-3.53-2.55s-4.87-1.79-4.87-4.37,2.27-4.26,5.91-4.26a9.22,9.22,0,0,1,5.63,1.71l-1.34,2a7.35,7.35,0,0,0-4.2-1.32c-2,0-2.8.64-2.8,1.62s.81,1.54,3.75,2.35,4.79,1.79,4.79,4.59c0,3.22-3.14,4.59-6.52,4.59a9,9,0,0,1-6.08-2.07l1.65-1.9a7.09,7.09,0,0,0,4.42,1.6C568.92,234.34,570.15,233.58,570.15,232.35Z" fill="#fff"/>
      <path d="M575.39,238.2l11.87-24.58,2.46,1.15-11.84,24.56Z" fill="#fff"/>
    </g>
    <g>
      <path d="M431.45,348.71l11.87-24.58,2.46,1.15-11.84,24.56Z" fill="#fff"/>
      <path d="M459.94,332.08l-.53,5.46h-2.24v-3c-2.07.06-3.64,1.74-4.48,4.62v5.49h3v2.24h-8.29v-2.24h2.18v-10.3h-2.18v-2.24h4.56l.56,3.42c1.12-2.46,2.66-3.78,5.21-3.78A6.69,6.69,0,0,1,459.94,332.08Z" fill="#fff"/>
      <path d="M470.17,344.79a6.75,6.75,0,0,0,3.89-1.29l1.34,1.9a8.59,8.59,0,0,1-5.38,1.82c-4.62,0-7.14-3.14-7.14-7.76,0-4.42,2.55-7.78,6.75-7.78,3.92,0,6.38,2.8,6.38,7.39a10.08,10.08,0,0,1-.08,1.4h-9.8C466.33,343.5,468,344.79,470.17,344.79Zm-4.06-6.44H473c-.06-2.8-1.2-4.34-3.3-4.34S466.3,335.38,466.11,338.35Z" fill="#fff"/>
      <path d="M487.19,346.86h-3.64l-5.24-14.78h3.39l3.72,12.18,3.78-12.18h3.22Z" fill="#fff"/>
      <path d="M503.59,344.57h4v2.29H496.06v-2.29h4.4V334.37H496.2v-2.3h7.39Zm-.11-17.75a2,2,0,1,1-2-2A2,2,0,0,1,503.48,326.81Z" fill="#fff"/>
      <path d="M517.89,344.79a6.75,6.75,0,0,0,3.89-1.29l1.34,1.9a8.59,8.59,0,0,1-5.38,1.82c-4.62,0-7.14-3.14-7.14-7.76,0-4.42,2.55-7.78,6.75-7.78,3.92,0,6.38,2.8,6.38,7.39a10.08,10.08,0,0,1-.08,1.4h-9.8C514.05,343.5,515.76,344.79,517.89,344.79Zm-4.06-6.44h6.86c-.06-2.8-1.2-4.34-3.3-4.34S514,335.38,513.83,338.35Z" fill="#fff"/>
      <path d="M535.82,346.86l-1.68-10.5-1.79,10.5h-3.84L526,332.08h3l1.54,12.82L532.66,334h3.14l1.9,10.95,1.54-12.82h2.91l-2.41,14.78Z" fill="#fff"/>
      <path d="M553.37,342.86c0-1.2-.48-1.76-3.53-2.55s-4.87-1.79-4.87-4.37,2.27-4.26,5.91-4.26a9.21,9.21,0,0,1,5.63,1.71l-1.34,2a7.34,7.34,0,0,0-4.2-1.32c-2,0-2.8.64-2.8,1.62s.81,1.54,3.75,2.35,4.79,1.79,4.79,4.59c0,3.22-3.14,4.59-6.52,4.59a9,9,0,0,1-6.08-2.07l1.65-1.9a7.09,7.09,0,0,0,4.42,1.6C552.14,344.85,553.37,344.09,553.37,342.86Z" fill="#fff"/>
      <path d="M558.61,348.71l11.87-24.58,2.46,1.15L561.1,349.83Z" fill="#fff"/>
    </g>
    <text transform="translate(466.79 30.46)" font-size="36" fill="#fff" font-family="FiraSans-SemiBold, Fira Sans" font-weight="700"><tspan letter-spacing="0em">A</tspan><tspan x="21.06" y="0" letter-spacing="-0.02em">P</tspan><tspan x="41.83" y="0">I</tspan></text>
    <rect x="841" y="193.2" width="140" height="70" fill="#445f82"/>
    <rect x="661" y="83.2" width="140" height="70" fill="#637045"/>
    <rect x="841" y="303.2" width="140" height="70" fill="#c73e1d"/>
    <g>
      <line x1="801.5" y1="153.7" x2="829.23" y2="182.14" fill="none" stroke="#fff" stroke-miterlimit="10" stroke-width="3"/>
      <polygon points="818.9 187.63 840.5 193.71 834.97 171.96 818.9 187.63" fill="#fff"/>
    </g>
    <g>
      <line x1="911.5" y1="304.2" x2="911.5" y2="279.85" fill="none" stroke="#fff" stroke-miterlimit="10" stroke-width="3"/>
      <polygon points="922.72 283.13 911.5 263.7 900.28 283.13 922.72 283.13" fill="#fff"/>
    </g>
    <g>
      <path d="M712.89,118.87c0,6.13-3.16,9.77-8.29,9.77s-8.31-3.54-8.31-9.77,3.18-9.77,8.31-9.77S712.89,112.6,712.89,118.87Zm-12.42,0c0,4.89,1.54,6.8,4.13,6.8s4.1-1.92,4.1-6.8-1.43-6.8-4.1-6.8S700.47,114,700.47,118.87Z" fill="#fff"/>
      <path d="M724.54,113.71l-.65,3.7a4.78,4.78,0,0,0-1.27-.19c-1.75,0-2.56,1.29-3.08,3.59v7.4h-3.83V113.9H719l.35,2.78c.67-2,2.05-3.19,3.73-3.19A5.11,5.11,0,0,1,724.54,113.71Z" fill="#fff"/>
      <path d="M738.57,108.2v20H735.2l-.22-1.75a4.81,4.81,0,0,1-4.1,2.19c-3.59,0-5.43-3-5.43-7.58s2.27-7.58,5.8-7.58a4.91,4.91,0,0,1,3.48,1.43v-7.13ZM734.74,124v-6.4a3.12,3.12,0,0,0-2.48-1.35c-1.67,0-2.81,1.4-2.81,4.75,0,3.59,1,4.72,2.56,4.72A3.17,3.17,0,0,0,734.74,124Z" fill="#fff"/>
      <path d="M754.16,122.21h-8.93c.27,2.75,1.57,3.56,3.4,3.56a5.79,5.79,0,0,0,3.48-1.24l1.59,2.16a8.44,8.44,0,0,1-5.43,1.94c-4.59,0-7-3-7-7.5,0-4.32,2.32-7.67,6.5-7.67s6.45,2.7,6.45,7.26C754.24,121.21,754.19,121.81,754.16,122.21Zm-3.73-2.56c0-2.16-.73-3.56-2.56-3.56-1.51,0-2.46,1-2.64,3.72h5.21Z" fill="#fff"/>
      <path d="M765.71,113.71l-.65,3.7a4.79,4.79,0,0,0-1.27-.19c-1.75,0-2.56,1.29-3.08,3.59v7.4h-3.83V113.9h3.32l.35,2.78c.67-2,2.05-3.19,3.72-3.19A5.11,5.11,0,0,1,765.71,113.71Z" fill="#fff"/>
    </g>
    <g>
      <path d="M876.88,225.55c0,4.32-3.08,6.29-7.34,6.29H867.4v6.37h-4V219.53h5.78C874,219.53,876.88,221.47,876.88,225.55Zm-4.1,0c0-2.19-1.3-3.16-3.62-3.16H867.4v6.53h1.81C871.4,228.92,872.77,228.08,872.77,225.55Z" fill="#fff"/>
      <path d="M887.88,223.71l-.65,3.7a4.77,4.77,0,0,0-1.27-.19c-1.76,0-2.56,1.29-3.08,3.59v7.4h-3.83V223.9h3.32l.35,2.78c.68-2,2.05-3.19,3.73-3.19A5.11,5.11,0,0,1,887.88,223.71Z" fill="#fff"/>
      <path d="M902.41,231.05c0,4.54-2.56,7.58-6.86,7.58s-6.86-2.83-6.86-7.58c0-4.56,2.56-7.58,6.88-7.58S902.41,226.3,902.41,231.05Zm-9.72,0c0,3.29,1,4.72,2.86,4.72s2.86-1.46,2.86-4.72-1-4.72-2.83-4.72S892.7,227.79,892.7,231.05Z" fill="#fff"/>
      <path d="M917.59,218.2v20h-3.37l-.22-1.75a4.81,4.81,0,0,1-4.1,2.19c-3.59,0-5.43-3-5.43-7.58s2.27-7.58,5.8-7.58a4.91,4.91,0,0,1,3.48,1.43v-7.13ZM913.76,234v-6.4a3.12,3.12,0,0,0-2.48-1.35c-1.67,0-2.81,1.4-2.81,4.75,0,3.59,1,4.72,2.56,4.72A3.17,3.17,0,0,0,913.76,234Z" fill="#fff"/>
      <path d="M932.81,238.2h-3.32l-.19-1.92a4.8,4.8,0,0,1-4.35,2.35c-2.65,0-4-1.7-4-4.45V223.9h3.83v9.8c0,1.57.51,2.08,1.57,2.08a3.16,3.16,0,0,0,2.62-1.86v-10h3.83Z" fill="#fff"/>
      <path d="M947.1,225.19l-1.67,2.27a4.35,4.35,0,0,0-2.81-1c-1.92,0-3.05,1.38-3.05,4.7s1.21,4.43,3,4.43a4.83,4.83,0,0,0,2.83-1l1.67,2.4a7.18,7.18,0,0,1-4.7,1.67c-4.26,0-6.88-2.92-6.88-7.48s2.64-7.69,6.83-7.69A6.87,6.87,0,0,1,947.1,225.19Z" fill="#fff"/>
      <path d="M958.57,237.53a6.76,6.76,0,0,1-3.72,1.11c-3,0-4.48-1.73-4.48-4.91V226.6h-2.13v-2.7h2.13v-3.13l3.83-.46v3.59h3.29l-.38,2.7h-2.92v7c0,1.4.46,1.94,1.43,1.94a3.36,3.36,0,0,0,1.62-.49Z" fill="#fff"/>
    </g>
    <g>
      <path d="M874.85,341.76h-2l0,7.31-4,0-.13-18.68,5.83,0c5,0,7.54,1.76,7.57,5.54,0,2.48-1.19,4-3.66,5.07l4.89,8-4.51,0Zm-2-2.79h2.08c2.08,0,3.21-.89,3.19-3,0-1.92-1.13-2.75-3.53-2.73h-1.78Z" fill="#fff"/>
      <path d="M897,342.93,888,343c.29,2.75,1.59,3.55,3.43,3.54a5.79,5.79,0,0,0,3.47-1.26l1.61,2.15a8.44,8.44,0,0,1-5.41,2c-4.59,0-7-3-7-7.46,0-4.32,2.27-7.68,6.45-7.71s6.47,2.66,6.5,7.22C897,341.93,897,342.52,897,342.93Zm-3.74-2.54c0-2.16-.75-3.56-2.59-3.54-1.51,0-2.45,1-2.62,3.74l5.21,0Z" fill="#fff"/>
      <path d="M906.89,348.85l-4.56,0-4.77-14.27,4.16,0,2.91,11.29,2.81-11.33,3.94,0Z" fill="#fff"/>
      <path d="M917.41,329.35a2.23,2.23,0,0,1-2.33,2.26,2.24,2.24,0,1,1,0-4.48A2.23,2.23,0,0,1,917.41,329.35Zm-.27,19.44-3.83,0-.1-14.31,3.83,0Z" fill="#fff"/>
      <path d="M932.56,342.69l-8.93.06c.29,2.75,1.59,3.55,3.42,3.54a5.79,5.79,0,0,0,3.47-1.27l1.61,2.15a8.44,8.44,0,0,1-5.41,2c-4.59,0-7-3-7-7.46,0-4.32,2.27-7.68,6.45-7.71s6.47,2.66,6.5,7.22C932.64,341.69,932.59,342.28,932.56,342.69Zm-3.74-2.54c0-2.16-.75-3.56-2.59-3.54-1.51,0-2.45,1-2.62,3.74l5.21,0Z" fill="#fff"/>
      <path d="M950.18,348.56l-4.67,0-2.13-10.86-2,10.89-4.62,0-3.23-14.28,3.86,0,1.83,11.46,2.3-11.49,3.83,0,2.21,11.46,1.86-11.48,3.67,0Z" fill="#fff"/>
    </g>
    <text transform="translate(773.88 30.46)" font-size="36" fill="#fff" font-family="FiraSans-SemiBold, Fira Sans" font-weight="700"><tspan letter-spacing="-0.01em">C</tspan><tspan x="20.25" y="0" letter-spacing="-0.01em">l</tspan><tspan x="30.69" y="0" letter-spacing="-0.01em">i</tspan><tspan x="40.32" y="0" letter-spacing="-0.01em">e</tspan><tspan x="59.88" y="0" letter-spacing="0em">n</tspan><tspan x="80.56" y="0">t</tspan></text>
    <g>
      <line x1="169.5" y1="123.2" x2="396.75" y2="123.2" fill="none" stroke="#fff" stroke-miterlimit="10" stroke-width="3" stroke-dasharray="6 6"/>
      <polygon points="386.81 135.47 384.76 133.28 395.6 123.21 384.76 113.14 386.81 110.94 400 123.21 386.81 135.47" fill="#fff"/>
    </g>
    <g>
      <line x1="580.5" y1="123.2" x2="627.25" y2="123.2" fill="none" stroke="#fff" stroke-miterlimit="10" stroke-width="3" stroke-dasharray="6 6"/>
      <polygon points="617.31 135.47 615.26 133.28 626.1 123.21 615.26 113.14 617.31 110.94 630.5 123.21 617.31 135.47" fill="#fff"/>
    </g>
    <g>
      <line x1="610.5" y1="233.2" x2="808.75" y2="233.2" fill="none" stroke="#fff" stroke-miterlimit="10" stroke-width="3" stroke-dasharray="6 6"/>
      <polygon points="798.81 245.47 796.76 243.28 807.6 233.21 796.76 223.13 798.81 220.94 812 233.21 798.81 245.47" fill="#fff"/>
    </g>
    <g>
      <line x1="599.5" y1="343.2" x2="807.75" y2="343.2" fill="none" stroke="#fff" stroke-miterlimit="10" stroke-width="3" stroke-dasharray="6 6"/>
      <polygon points="797.81 355.47 795.76 353.28 806.6 343.21 795.76 333.13 797.81 330.94 811 343.21 797.81 355.47" fill="#fff"/>
    </g>
    <g>
      <line x1="349.5" y1="233.2" x2="396.75" y2="233.2" fill="none" stroke="#fff" stroke-miterlimit="10" stroke-width="3" stroke-dasharray="6 6"/>
      <polygon points="386.81 245.47 384.76 243.28 395.6 233.21 384.76 223.13 386.81 220.94 400 233.21 386.81 245.47" fill="#fff"/>
    </g>
    <g>
      <line x1="349.5" y1="343.2" x2="396.75" y2="343.2" fill="none" stroke="#fff" stroke-miterlimit="10" stroke-width="3" stroke-dasharray="6 6"/>
      <polygon points="386.81 355.47 384.76 353.28 395.6 343.21 384.76 333.13 386.81 330.94 400 343.21 386.81 355.47" fill="#fff"/>
    </g>
  </g>
</svg>
