<svg xmlns="http://www.w3.org/2000/svg" xmlns:xlink="http://www.w3.org/1999/xlink" viewBox="0 0 910 490.19">
  <defs>
    <filter id="b" x="101.18" y="-8437.09" width="33.01" height="32766" filterUnits="userSpaceOnUse" color-interpolation-filters="sRGB">
      <feFlood flood-color="#fff" result="bg"/>
      <feBlend in="SourceGraphic" in2="bg"/>
    </filter>
    <mask id="a" x="101.18" y="-8437.09" width="33.01" height="32766" maskUnits="userSpaceOnUse">
      <g filter="url(#b)"/>
    </mask>
    <linearGradient id="c" x1="101.18" y1="26.07" x2="134.19" y2="26.07" gradientUnits="userSpaceOnUse">
      <stop offset="0.26" stop-color="#fff"/>
      <stop offset="0.29" stop-color="#fdfdfd"/>
      <stop offset="0.31" stop-color="#f5f5f5"/>
      <stop offset="0.32" stop-color="#e7e7e7"/>
      <stop offset="0.33" stop-color="#d4d4d4"/>
      <stop offset="0.35" stop-color="#bababa"/>
      <stop offset="0.36" stop-color="#9c9c9c"/>
      <stop offset="0.36" stop-color="#8a8a8a"/>
      <stop offset="0.37" stop-color="#949494"/>
      <stop offset="0.39" stop-color="#b5b5b5"/>
      <stop offset="0.41" stop-color="#d0d0d0"/>
      <stop offset="0.44" stop-color="#e5e5e5"/>
      <stop offset="0.47" stop-color="#f4f4f4"/>
      <stop offset="0.5" stop-color="#fcfcfc"/>
      <stop offset="0.56" stop-color="#fff"/>
      <stop offset="0.64" stop-color="#fcfcfc"/>
      <stop offset="0.69" stop-color="#f4f4f4"/>
      <stop offset="0.73" stop-color="#e6e6e6"/>
      <stop offset="0.77" stop-color="#d2d2d2"/>
      <stop offset="0.81" stop-color="#b7b7b7"/>
      <stop offset="0.84" stop-color="#989898"/>
      <stop offset="0.86" stop-color="gray"/>
      <stop offset="0.87" stop-color="#9e9e9e"/>
      <stop offset="0.9" stop-color="#c1c1c1"/>
      <stop offset="0.92" stop-color="#dcdcdc"/>
      <stop offset="0.95" stop-color="#efefef"/>
      <stop offset="0.97" stop-color="#fbfbfb"/>
      <stop offset="1" stop-color="#fff"/>
    </linearGradient>
    <filter id="e" x="101.18" y="24.1" width="38.01" height="3.93" filterUnits="userSpaceOnUse" color-interpolation-filters="sRGB">
      <feFlood flood-color="#fff" result="bg"/>
      <feBlend in="SourceGraphic" in2="bg"/>
    </filter>
    <mask id="d" x="101.18" y="24.1" width="38.01" height="3.93" maskUnits="userSpaceOnUse">
      <g mask="url(#a)" filter="url(#e)">
        <path d="M132.23,28H103.14a2,2,0,0,1,0-3.93h29.09a2,2,0,0,1,0,3.93Zm-29.09-3.9a1.93,1.93,0,0,0,0,3.87h29.09a1.93,1.93,0,0,0,0-3.87Z" fill="url(#c)" style="mix-blend-mode: multiply"/>
      </g>
    </mask>
  </defs>
  <title>usecase-2</title>
  <g>
    <g>
      <rect width="240.09" height="490.19" rx="26.66" ry="26.66" fill="#ddd"/>
      <rect x="10" y="50" width="220" height="380" fill="#222"/>
      <path d="M137.23,28H103.14a2,2,0,0,1-1.95-1.95h0a2,2,0,0,1,1.95-1.95h34.08a2,2,0,0,1,1.95,1.95h0A2,2,0,0,1,137.23,28Z"/>
      <g mask="url(#d)">
        <path d="M137.23,28H103.14a2,2,0,0,1,0-3.93h34.09a2,2,0,0,1,0,3.93Zm-34.09-3.9a1.93,1.93,0,0,0,0,3.87h34.09a1.93,1.93,0,0,0,0-3.87Z" fill="#555"/>
      </g>
      <rect x="100.08" y="442.31" width="37.05" height="32.05" rx="4.85" ry="4.85" fill="#aaa"/>
    </g>
    <path d="M499.38,259.47a13.67,13.67,0,0,0-3.5-1.41V221.64A13.65,13.65,0,1,0,482.68,199L451.2,180.85a13.64,13.64,0,1,0-26.16,0L393.55,199a13.65,13.65,0,1,0-13,22.68V258a13.65,13.65,0,1,0,13,22.7L425,298.88a13.64,13.64,0,1,0,26-.44l31.29-18.07a13.65,13.65,0,1,0,17-20.91Zm-102.43,8.6a13.49,13.49,0,0,0-3.83-6.64l41.21-71.38a13.67,13.67,0,0,0,7.61,0l41.2,71.36a13.61,13.61,0,0,0-3.84,6.66Zm82.53-63.4a13.62,13.62,0,0,0,9.75,17v36.45l-.46.13-41.21-71.38.37-.36Zm-51.17-18.24.39.39-41.21,71.38-.29-.08V221.57a13.62,13.62,0,0,0,9.56-16.93Zm19.9,107.12a13.65,13.65,0,0,0-19.91-.28l-31.51-18.19.1-.37h82.46c.06.25.13.49.21.74Z" fill="#e535ab"/>
    <rect x="640" y="81.09" width="270" height="80" rx="5" ry="5" fill="#629b4f"/>
    <g>
      <path d="M715.17,124.53h-3v10h-4.75V109.63h7.42c6.51,0,9.86,2.38,9.86,7.31,0,3.38-1.66,5.4-5,6.73l6.51,10.83h-5.47Zm-3-3.42h3c3,0,4.61-1.19,4.61-4.18,0-2.7-1.55-3.85-5-3.85h-2.56Z"/>
      <path d="M743.32,113.16h-9.18v6.95h8v3.53h-8v7.31H744v3.56H729.39V109.63h14.43Z"/>
      <path d="M763.48,112.15l-2.34,2.7a8.35,8.35,0,0,0-5.58-2.12c-2.23,0-3.85,1-3.85,3s1,2.59,5.11,3.89c4.36,1.37,7.38,3.17,7.38,7.85,0,4.46-3.49,7.63-9.43,7.63a12.37,12.37,0,0,1-9-3.42l2.45-2.74a9.49,9.49,0,0,0,6.41,2.48c2.66,0,4.57-1.3,4.57-3.71,0-2.09-1-3-4.93-4.21-5.22-1.62-7.49-3.71-7.49-7.49,0-4.14,3.56-6.87,8.46-6.87A11.2,11.2,0,0,1,763.48,112.15Z"/>
      <path d="M783,113.41h-6.48v21.09h-4.79V113.41H765v-3.78h18.47Z"/>
      <path d="M807.22,128.75H799l-1.55,5.76H792.5l7.74-24.87h5.87l7.7,24.87h-5Zm-1-3.6-3.17-11.88-3.17,11.88Z"/>
      <path d="M834,117.55c0,5.72-4.14,8.28-9.75,8.28h-2.92v8.67h-4.75V109.63h7.34C830.19,109.63,834,112.19,834,117.55Zm-5,0c0-3.13-1.91-4.43-5.15-4.43h-2.56v9.14h2.56C827.06,122.27,829,121.19,829,117.55Z"/>
      <path d="M842.61,134.51h-4.75V109.63h4.75Z"/>
    </g>
    <rect x="640" y="201.09" width="270" height="80" rx="5" ry="5" fill="#2f868f"/>
    <g>
      <path d="M700.79,236.29c0,5.72-4.14,8.28-9.75,8.28h-2.92v8.67h-4.75V228.37h7.34C697,228.37,700.79,230.93,700.79,236.29Zm-5,0c0-3.13-1.91-4.43-5.15-4.43h-2.56V241h2.56C693.84,241,695.82,239.93,695.82,236.29Z"/>
      <path d="M720.12,243.71c0,6-3.35,10.08-9,10.08s-9-3.82-9-10.08c0-6,3.35-10,9-10S720.12,237.48,720.12,243.71Zm-13.07,0c0,4.57,1.4,6.59,4.1,6.59s4.1-2.05,4.1-6.59-1.4-6.55-4.07-6.55S707.05,239.21,707.05,243.71Z"/>
      <path d="M737.22,235.93l-1.8,2.7a8.68,8.68,0,0,0-4.79-1.55c-1.84,0-2.88.76-2.88,1.91s.76,1.84,4,2.74c3.89,1,6.08,2.63,6.08,6,0,4-3.67,6-8,6a11.14,11.14,0,0,1-7.59-2.7l2.3-2.59a8.61,8.61,0,0,0,5.18,1.87c2.05,0,3.38-.86,3.38-2.3s-.76-2.09-4.32-3.1c-3.92-1.08-5.65-3-5.65-5.76,0-3.17,2.92-5.54,7.34-5.54A10.71,10.71,0,0,1,737.22,235.93Z"/>
      <path d="M752.48,252.35a8.33,8.33,0,0,1-4.79,1.44c-3.74,0-5.72-2.16-5.72-6.23v-10h-3V234.2h3V230l4.61-.54v4.75H751l-.47,3.31h-4v9.94c0,1.87.61,2.63,2,2.63a4.54,4.54,0,0,0,2.27-.68Z"/>
      <path d="M771.09,235.21a17.09,17.09,0,0,1-5.51.65c2.3,1,3.46,2.52,3.46,4.9,0,3.71-2.88,6.41-7.67,6.41a7.69,7.69,0,0,1-2.27-.29,1.73,1.73,0,0,0-.79,1.4c0,.68.4,1.33,2.3,1.33h2.92c4.21,0,6.95,2.27,6.95,5.4,0,3.82-3.28,6.08-9.5,6.08-6.77,0-8.67-2.16-8.67-6h4.14c0,1.91.83,2.74,4.61,2.74s4.79-1,4.79-2.52-1.12-2.27-3.24-2.27h-2.88c-3.82,0-5.44-1.69-5.44-3.67a4.3,4.3,0,0,1,2.23-3.53,5.55,5.55,0,0,1-3.35-5.36c0-4.14,3.28-6.84,7.88-6.84a15.44,15.44,0,0,0,8.89-2.12Zm-13.28,5.22c0,2.3,1.26,3.74,3.38,3.74s3.38-1.37,3.38-3.78-1.15-3.6-3.46-3.6C759,236.8,757.81,238.24,757.81,240.43Z"/>
      <path d="M785.17,234l-.79,4.46a6.4,6.4,0,0,0-1.69-.22c-2.3,0-3.49,1.69-4.21,4.9v10.15h-4.61v-19h4l.43,3.74c.9-2.74,2.74-4.25,5-4.25A6.6,6.6,0,0,1,785.17,234Z"/>
      <path d="M802.48,245.15h-12c.32,3.89,2.16,5.15,4.68,5.15A7.91,7.91,0,0,0,800,248.6l1.91,2.63a11,11,0,0,1-7.05,2.56c-5.9,0-9.07-3.92-9.07-9.93,0-5.8,3.06-10.19,8.46-10.19s8.39,3.6,8.39,9.61C802.59,243.89,802.52,244.64,802.48,245.15Zm-4.46-3.2c0-3.13-1.12-5-3.71-5-2.16,0-3.53,1.44-3.78,5.22H798Z"/>
      <path d="M822.25,230.89l-2.34,2.7a8.35,8.35,0,0,0-5.58-2.12c-2.23,0-3.85,1-3.85,3s1,2.59,5.11,3.89c4.36,1.37,7.38,3.17,7.38,7.85,0,4.46-3.49,7.63-9.43,7.63a12.37,12.37,0,0,1-9-3.42l2.45-2.74a9.49,9.49,0,0,0,6.41,2.48c2.66,0,4.57-1.3,4.57-3.71,0-2.09-1-3-4.93-4.21-5.22-1.62-7.49-3.71-7.49-7.49,0-4.14,3.56-6.87,8.46-6.87A11.2,11.2,0,0,1,822.25,230.89Z"/>
      <path d="M848.74,254l-3,3.85c-2.52-2.56-4.86-4.14-9.47-4.14-6.41,0-10.65-4.54-10.65-12.85s4.25-13,10.91-13,10.87,4.64,10.87,13c0,6.08-2.48,9.18-5.79,10.94A11.49,11.49,0,0,1,848.74,254Zm-12.17-3.82c3.71,0,5.87-2.63,5.87-9.36s-2.12-9.32-5.87-9.32-5.9,2.66-5.9,9.36S832.94,250.15,836.58,250.15Z"/>
      <path d="M856.67,249.36h10l-.54,3.89H851.91V228.37h4.75Z"/>
    </g>
    <rect x="640" y="321.09" width="270" height="80" rx="5" ry="5" fill="#e7be46"/>
    <g>
      <path d="M684.71,353.44h-9.18v6.95h8v3.53h-8v7.31h9.83v3.56H670.78V349.91h14.43Z"/>
      <path d="M689.25,370.43V348.11l4.61-.5v22.68c0,.9.32,1.33,1.08,1.33a3.21,3.21,0,0,0,1.08-.18l1,3.24a7.54,7.54,0,0,1-3.06.65C691,375.32,689.25,373.56,689.25,370.43Z"/>
      <path d="M715.38,372.19l-1,3.06c-2.09-.18-3.46-.94-4.21-2.77a6.48,6.48,0,0,1-5.69,2.84c-3.82,0-6.16-2.41-6.16-5.87,0-4.14,3.13-6.37,8.67-6.37h2.38V362c0-2.48-1.12-3.31-3.56-3.31a17,17,0,0,0-5,1l-1.08-3.13a19.66,19.66,0,0,1,6.91-1.37c5.08,0,7.31,2.34,7.31,6.55v8C713.94,371.29,714.45,371.83,715.38,372.19Zm-6-2.56v-3.85H707.5c-3,0-4.46,1.08-4.46,3.31,0,1.84.94,2.88,2.7,2.88A4.07,4.07,0,0,0,709.41,369.63Z"/>
      <path d="M731.94,357.47l-1.8,2.7a8.68,8.68,0,0,0-4.79-1.55c-1.84,0-2.88.76-2.88,1.91s.76,1.84,4,2.74c3.89,1,6.08,2.63,6.08,6,0,4-3.67,6-8,6a11.14,11.14,0,0,1-7.59-2.7l2.3-2.59a8.61,8.61,0,0,0,5.18,1.87c2.05,0,3.38-.86,3.38-2.3s-.76-2.09-4.32-3.1c-3.92-1.08-5.65-3-5.65-5.76,0-3.17,2.92-5.54,7.34-5.54A10.71,10.71,0,0,1,731.94,357.47Z"/>
      <path d="M747.21,373.88a8.33,8.33,0,0,1-4.79,1.44c-3.74,0-5.72-2.16-5.72-6.23v-10h-3v-3.31h3v-4.21l4.61-.54v4.75h4.43l-.47,3.31h-4V369c0,1.87.61,2.63,2,2.63a4.54,4.54,0,0,0,2.27-.68Z"/>
      <path d="M755,348.9a2.9,2.9,0,1,1-2.92-2.81A2.76,2.76,0,0,1,755,348.9Zm-.58,25.88H749.8v-19h4.61Z"/>
      <path d="M773.81,357.43l-2.05,2.77a6.08,6.08,0,0,0-3.85-1.37c-2.66,0-4.28,1.94-4.28,6.51s1.69,6.23,4.28,6.23a6.62,6.62,0,0,0,3.85-1.37l2.05,2.92a9.39,9.39,0,0,1-6.16,2.2c-5.51,0-8.93-3.82-8.93-9.9s3.42-10.22,8.89-10.22A8.87,8.87,0,0,1,773.81,357.43Z"/>
      <path d="M789.94,357.47l-1.8,2.7a8.68,8.68,0,0,0-4.79-1.55c-1.84,0-2.88.76-2.88,1.91s.76,1.84,4,2.74c3.89,1,6.08,2.63,6.08,6,0,4-3.67,6-8,6a11.14,11.14,0,0,1-7.59-2.7l2.3-2.59a8.61,8.61,0,0,0,5.18,1.87c2.05,0,3.38-.86,3.38-2.3s-.76-2.09-4.32-3.1c-3.92-1.08-5.65-3-5.65-5.76,0-3.17,2.92-5.54,7.34-5.54A10.71,10.71,0,0,1,789.94,357.47Z"/>
      <path d="M809.81,366.68h-12c.32,3.89,2.16,5.15,4.68,5.15a7.91,7.91,0,0,0,4.75-1.69l1.91,2.63a11,11,0,0,1-7.05,2.56c-5.9,0-9.07-3.92-9.07-9.93,0-5.79,3.06-10.19,8.46-10.19s8.39,3.6,8.39,9.61C809.92,365.42,809.85,366.18,809.81,366.68Zm-4.46-3.2c0-3.13-1.12-5-3.71-5-2.16,0-3.53,1.44-3.78,5.22h7.49Z"/>
      <path d="M829.22,372.19l-1,3.06c-2.09-.18-3.46-.94-4.21-2.77a6.48,6.48,0,0,1-5.69,2.84c-3.82,0-6.16-2.41-6.16-5.87,0-4.14,3.13-6.37,8.67-6.37h2.38V362c0-2.48-1.12-3.31-3.56-3.31a17,17,0,0,0-5,1l-1.08-3.13a19.66,19.66,0,0,1,6.91-1.37c5.08,0,7.31,2.34,7.31,6.55v8C827.78,371.29,828.28,371.83,829.22,372.19Zm-6-2.56v-3.85h-1.91c-3,0-4.46,1.08-4.46,3.31,0,1.84.94,2.88,2.7,2.88A4.07,4.07,0,0,0,823.24,369.63Z"/>
      <path d="M844.66,355.49l-.79,4.46a6.38,6.38,0,0,0-1.69-.22c-2.3,0-3.49,1.69-4.21,4.9v10.15h-4.61v-19h4l.43,3.74c.9-2.74,2.74-4.25,5-4.25A6.58,6.58,0,0,1,844.66,355.49Z"/>
      <path d="M860.32,357.43l-2.05,2.77a6.08,6.08,0,0,0-3.85-1.37c-2.66,0-4.28,1.94-4.28,6.51s1.69,6.23,4.28,6.23a6.62,6.62,0,0,0,3.85-1.37l2.05,2.92a9.39,9.39,0,0,1-6.16,2.2c-5.51,0-8.93-3.82-8.93-9.9s3.42-10.22,8.89-10.22A8.87,8.87,0,0,1,860.32,357.43Z"/>
      <path d="M879.22,361v13.79h-4.61V361.71c0-2.37-.94-3.06-2.34-3.06-1.62,0-2.88,1.12-4,2.84v13.28h-4.61V348.14l4.61-.47V358a6.87,6.87,0,0,1,5.54-2.81C877.2,355.2,879.22,357.4,879.22,361Z"/>
    </g>
    <line x1="640" y1="241.09" x2="520" y2="241.09" fill="none" stroke="#2f868f" stroke-miterlimit="10" stroke-width="3"/>
    <line x1="259.5" y1="161.09" x2="350" y2="211.09" fill="none" stroke="#629b4f" stroke-miterlimit="10" stroke-width="3"/>
    <line x1="260" y1="321.09" x2="350.5" y2="271.09" fill="none" stroke="#e7be46" stroke-miterlimit="10" stroke-width="3"/>
    <line x1="259.5" y1="241.59" x2="350" y2="241.59" fill="none" stroke="#2f868f" stroke-miterlimit="10" stroke-width="3"/>
    <path d="M640,121.09H608.35A28.35,28.35,0,0,0,580,149.44v33.31a28.35,28.35,0,0,1-28.35,28.35H520" fill="none" stroke="#629b4f" stroke-miterlimit="10" stroke-width="3"/>
    <path d="M520,271.09h31.65A28.35,28.35,0,0,1,580,299.44v33.31a28.35,28.35,0,0,0,28.35,28.35H640" fill="none" stroke="#e7be46" stroke-miterlimit="10" stroke-width="3"/>
  </g>
</svg>
