<svg xmlns="http://www.w3.org/2000/svg" viewBox="0 0 199.31 361.56">
  <title>watch-zones</title>
  <g>
    <g>
      <path d="M157.13,284.9H11.71C29.92,305.79,31.18,312.75,36.34,342a21.23,21.23,0,0,0,4,9.15c1.06,1.39,6.53,10.4,18.35,10.4H131.1c11.83,0,17.3-9,18.35-10.4a21.23,21.23,0,0,0,4-9.15c6.28-35.61,9.59-39.85,24.63-57.11Z" fill="#aaa"/>
      <path d="M157.13,76.66H11.71C29.92,55.77,31.18,48.8,36.34,19.55a21.23,21.23,0,0,1,4-9.15C41.39,9,46.86,0,58.68,0H131.1c11.83,0,17.3,9,18.35,10.4a21.23,21.23,0,0,1,4,9.15c6.28,35.61,9.59,39.85,24.63,57.11Z" fill="#aaa"/>
      <rect x="181.38" y="180.09" width="12.07" height="53.75" rx="4.19" ry="4.19" fill="#888"/>
      <rect x="187.24" y="124.63" width="12.07" height="38.04" rx="4.19" ry="4.19" fill="#888"/>
      <rect y="69.63" width="189.82" height="222.21" rx="31.41" ry="31.41" fill="#e5e5e5"/>
      <rect x="6.25" y="76.59" width="177.32" height="208.31" rx="27.05" ry="27.05" fill="#222"/>
    </g>
    <rect x="30.16" y="101.06" width="129" height="158" rx="13.93" ry="13.93" fill="none" stroke="#e65d13" stroke-miterlimit="10" stroke-width="3" stroke-dasharray="2.99 2.99"/>
    <path d="M99.85,188.59H89.32l-2,7.36H81l9.89-31.79h7.5L108.27,196h-6.44ZM98.61,184l-4-15.18-4,15.18Z" fill="#e65d13"/>
  </g>
</svg>
