<svg xmlns="http://www.w3.org/2000/svg" viewBox="0 0 439.63 310.07"><title>laptop</title><path d="M387.36,215.31V10a10,10,0,0,0-10-10H62.51a10,10,0,0,0-10,10V215.31Z" fill="#bbb"/><rect x="62.44" y="10.92" width="316.29" height="193.82" fill="#222"/><path d="M387.11,218.8H52.51L0,298.66v4.55s0,6.85,15.24,6.85H424.39c15.23,0,15.23-6.85,15.23-6.85v-4.55Z" fill="#777"/><path d="M439.17,296.29l-52.06-81H52.51l-52.06,81S-4,306.57,15.24,306.57H424.39C443.67,306.57,439.17,296.29,439.17,296.29Z" fill="#ddd"/><path d="M168.95,235.14h15.14l-.69,5.93H167.95Q168.44,238.1,168.95,235.14Z" fill="#444"/><path d="M160.49,233.67h15.07l.86-5.87H161.66Z" fill="#444"/><path d="M156.5,249.92H140.58l-1.51,5.94H155.3Z" fill="#444"/><path d="M178.9,233.67H194q.24-2.94.48-5.87H179.69Z" fill="#444"/><path d="M149.06,241.07h15.45l1.07-5.93H150.44Z" fill="#444"/><path d="M137,249.92H121.13l-1.89,5.94h16.23Z" fill="#444"/><path d="M186.83,241.07h15.45l.31-5.93H187.45Q187.14,238.1,186.83,241.07Z" fill="#444"/><path d="M215.72,233.67h15.07q-.14-2.94-.27-5.87H215.76Q215.75,230.74,215.72,233.67Z" fill="#444"/><path d="M149.29,242.53H133.76l-1.68,5.94h15.84Z" fill="#444"/><path d="M224.6,241.07h15.45q-.23-3-.45-5.93H224.46Q224.53,238.1,224.6,241.07Z" fill="#444"/><path d="M205.72,241.07h15.45q0-3-.07-5.93H206Z" fill="#444"/><path d="M197.31,233.67h15.06q.05-2.94.11-5.87H197.73Q197.52,230.74,197.31,233.67Z" fill="#444"/><path d="M187.25,242.53H171.72q-.46,3-.92,5.94h15.84Z" fill="#444"/><path d="M234.31,249.92H218.39q0,3,0,5.94h16.23Q234.47,252.89,234.31,249.92Z" fill="#444"/><path d="M244.18,242.53H228.66l.22,5.94h15.84Q244.45,245.5,244.18,242.53Z" fill="#444"/><path d="M253.76,249.92H237.84q.2,3,.39,5.94h16.23Z" fill="#444"/><path d="M225.2,242.53H209.68q-.08,3-.16,5.94h15.84Z" fill="#444"/><path d="M258.11,235.14H243l.52,5.93h15.46Z" fill="#444"/><path d="M176,249.92H160l-1.13,5.94h16.23Q175.54,252.89,176,249.92Z" fill="#444"/><path d="M214.85,249.92H198.94q-.18,3-.37,5.94H214.8Q214.82,252.89,214.85,249.92Z" fill="#444"/><path d="M263.17,242.53H247.64l.6,5.94h15.84Q263.62,245.5,263.17,242.53Z" fill="#444"/><path d="M273.21,249.92H257.3l.77,5.94H274.3Z" fill="#444"/><path d="M206.23,242.53H190.7l-.54,5.94H206Q206.11,245.5,206.23,242.53Z" fill="#444"/><path d="M195.4,249.92H179.49l-.75,5.94H195Z" fill="#444"/><path d="M59.75,255.86H76l2.72-5.94H62.78Z" fill="#444"/><path d="M332.32,242.53h-14.7l2,5.94h15Z" fill="#444"/><path d="M272.08,221.73H261.17c.24,1.53.48,3.07.72,4.6H273Q272.53,224,272.08,221.73Z" fill="#444"/><path d="M324.28,221.73H310.62l1.55,4.6h13.89Z" fill="#444"/><path d="M326.63,227.8h-14l2,5.87H328.9Z" fill="#444"/><path d="M130.31,242.53H114.78l-2.06,5.94h15.84Z" fill="#444"/><path d="M285.56,221.73H274.65l.95,4.6h11.09Z" fill="#444"/><path d="M329.47,235.14H315.14l2,5.93h14.63Z" fill="#444"/><path d="M342.81,227.8H329.25l2.33,5.87h13.84Z" fill="#444"/><path d="M352.63,249.92H338l2.35,5.94h14.91Z" fill="#444"/><path d="M340.11,221.73H326.85l1.82,4.6h13.49Z" fill="#444"/><path d="M346.06,235.14H332.15l2.35,5.93h14.2Z" fill="#444"/><path d="M349.34,242.53H335.08l2.35,5.94H352Z" fill="#444"/><path d="M335.18,249.92H320.12l2,5.94h15.36Z" fill="#444"/><path d="M105.25,233.67h15.06l2-5.87H107.55Z" fill="#444"/><path d="M98.14,249.92H82.23l-2.65,5.94H95.81Z" fill="#444"/><path d="M92.4,241.07h15.45l2.21-5.93H94.92Z" fill="#444"/><path d="M111.33,242.53H95.8l-2.44,5.94H109.2Z" fill="#444"/><path d="M117.59,249.92H101.68l-2.27,5.94h16.22Z" fill="#444"/><path d="M130.17,241.07h15.45l1.45-5.93H131.93Z" fill="#444"/><path d="M91.56,235.14H76.42l-2.9,5.93H89Z" fill="#444"/><path d="M86.23,227.8H71.48l-3,5.87H83.49Z" fill="#444"/><path d="M111.29,241.07h15.45l1.83-5.93H113.43Z" fill="#444"/><path d="M123.67,233.67h15.06l1.61-5.87H125.58Z" fill="#444"/><path d="M92.35,242.53H76.82L74,248.47H89.84Z" fill="#444"/><path d="M168.26,242.53H152.74l-1.3,5.94h15.84Q167.77,245.5,168.26,242.53Z" fill="#444"/><path d="M277.9,255.86h37.9q-.94-3-1.88-5.94H276.75Q277.32,252.89,277.9,255.86Z" fill="#444"/><path d="M281.26,241.07h4c.11.49.22,1,.34,1.47l1.36,5.94h26.52l-1.88-5.94c-.15-.49-.31-1-.46-1.47l-1.42-4.48-.46-1.45H280Z" fill="#444"/><path d="M254.86,263.32h16.62l-1-6h-16.3Q254.51,260.32,254.86,263.32Z" fill="#444"/><path d="M271,233.67h37.82l-1.86-5.87h-37Z" fill="#444"/><path d="M282.14,242.53H266.62l1,5.94h15.83Q282.78,245.5,282.14,242.53Z" fill="#444"/><path d="M234.55,263.32h16.62l-.63-6h-16.3Z" fill="#444"/><path d="M51.76,263.32H68.38l2.82-6H54.89Z" fill="#444"/><path d="M324.64,263.32h36.9l-2.72-6h-36.2Z" fill="#444"/><path d="M72.07,263.32H88.69l2.44-6H74.82Z" fill="#444"/><path d="M92.38,263.32H109l2.06-6H94.75Z" fill="#444"/><path d="M35.44,263.32H48.07l3.21-6H38.89Z" fill="#444"/><path d="M214.24,263.32h16.62q-.12-3-.25-6H214.3Q214.27,260.32,214.24,263.32Z" fill="#444"/><path d="M112.69,263.32h97.85q.07-3,.14-6h-96Z" fill="#444"/><path d="M372.16,248.47h19.25L388,242.53H369.13Z" fill="#444"/><path d="M375.94,255.86l.24.47.51,1,3.06,6h20.2l-3.45-6-.84-1.46-3.41-5.94H372.9Z" fill="#444"/><path d="M368.38,241.07h18.77l-3.4-5.93h-18.4Z" fill="#444"/><path d="M364.6,233.67h18.31l-3.37-5.87H361.61Z" fill="#444"/><path d="M358.51,221.73l2.35,4.6h17.83l-2.64-4.6Z" fill="#444"/><path d="M358.15,255.86h14.9l-3-5.94H355.46Z" fill="#444"/><path d="M354.8,248.47h14.55l-3-5.94H352.11Z" fill="#444"/><path d="M364.49,263.32H376.8l-3-6H361.71Z" fill="#444"/><path d="M348.09,233.67h13.84L359,227.8H345.43Z" fill="#444"/><path d="M351.44,241.07h14.19l-3-5.93H348.75Z" fill="#444"/><path d="M344.77,226.33h13.49l-2.31-4.6H342.68Z" fill="#444"/><path d="M289.3,226.33h17.16l-1.46-4.6H288.12Z" fill="#444"/><path d="M202.22,221.73H192l-.43,4.6H202C202,224.8,202.13,223.27,202.22,221.73Z" fill="#444"/><path d="M186.37,221.73h-11.2c-.24,1.53-.47,3.07-.71,4.6h11.39Z" fill="#444"/><path d="M230.59,221.73H219c0,1.53,0,3.07,0,4.6h11.81C230.73,224.8,230.66,223.27,230.59,221.73Z" fill="#444"/><path d="M216.41,221.73H204.79c-.07,1.53-.14,3.07-.22,4.6h11.81C216.39,224.8,216.4,223.27,216.41,221.73Z" fill="#444"/><path d="M172.6,221.73H161.69l-.93,4.6h11.09Z" fill="#444"/><path d="M142.07,233.67h15.06l1.24-5.87H143.62Z" fill="#444"/><path d="M242.64,221.73h-9.48c.09,1.53.17,3.07.26,4.6h9.64C242.92,224.8,242.78,223.27,242.64,221.73Z" fill="#444"/><path d="M252.55,233.67h15.06q-.51-2.94-1-5.87H251.84Q252.19,230.74,252.55,233.67Z" fill="#444"/><path d="M159.12,221.73H148.21l-1.16,4.6h11.09Z" fill="#444"/><path d="M262.37,241.07h15.46q-.61-3-1.21-5.93H261.47Z" fill="#444"/><path d="M258.6,221.73H248.26c.17,1.53.34,3.07.51,4.6h10.52C259.06,224.8,258.83,223.27,258.6,221.73Z" fill="#444"/><path d="M234.14,233.67H249.2l-.64-5.87H233.8Q234,230.74,234.14,233.67Z" fill="#444"/><path d="M73.37,242.53h-26L44,248.47H70.48Z" fill="#444"/><path d="M77.19,221.73H59.33l-2.64,4.6H74.85Z" fill="#444"/><path d="M90.67,221.73H79.75l-2.3,4.6H88.55Z" fill="#444"/><path d="M145.65,221.73H134l-1.4,4.6h11.83Z" fill="#444"/><path d="M59.24,249.92H43.14l-3.41,5.94H56.14Z" fill="#444"/><path d="M73.05,235.14H51.63l-3.41,5.93H70.08Z" fill="#444"/><path d="M68.2,227.8H55.84l-3.37,5.87H65.08Z" fill="#444"/><path d="M103.07,221.73H93.23l-2.08,4.6h10Z" fill="#444"/><path d="M115.48,221.73h-9.84l-1.87,4.6h10Z" fill="#444"/><path d="M104.27,227.8H89.51l-2.67,5.87H101.9Z" fill="#444"/><path d="M128.4,221.73H118l-1.66,4.6h10.52Z" fill="#444"/><path d="M288.09,262.62H275q-.48-2.65-1-5.3h12.83Q287.5,260,288.09,262.62Z" fill="#444"/><path d="M301.59,257.32H288.76q.6,2.65,1.21,5.3h13Z" fill="#444"/><path d="M316.27,257.32H303.44q.73,2.65,1.46,5.3h13Z" fill="#444"/><path d="M288.25,263.32H275.17q.48,2.65,1,5.3h13.3Q288.83,266,288.25,263.32Z" fill="#444"/><path d="M303.21,263.32H290.13l1.21,5.3h13.3Z" fill="#444"/><path d="M318.17,263.32H305.09l1.46,5.3h13.29Z" fill="#444"/><path d="M214.54,266.28H108.43L98,296.93H214.24Q214.39,281.6,214.54,266.28Z" fill="#b5b5b5"/></svg>