<svg xmlns="http://www.w3.org/2000/svg" xmlns:xlink="http://www.w3.org/1999/xlink" viewBox="0 0 235.09 485.19"><defs><filter id="b" x="101.18" y="-8415.48" width="33.01" height="32766" filterUnits="userSpaceOnUse" color-interpolation-filters="sRGB"><feFlood flood-color="#fff" result="bg"/><feBlend in="SourceGraphic" in2="bg"/></filter><mask id="a" x="101.18" y="-8415.48" width="33.01" height="32766" maskUnits="userSpaceOnUse"><g filter="url(#b)"/></mask><linearGradient id="c" x1="101.18" y1="26.07" x2="134.19" y2="26.07" gradientUnits="userSpaceOnUse"><stop offset="0.26" stop-color="#fff"/><stop offset="0.29" stop-color="#fdfdfd"/><stop offset="0.31" stop-color="#f5f5f5"/><stop offset="0.32" stop-color="#e7e7e7"/><stop offset="0.33" stop-color="#d4d4d4"/><stop offset="0.35" stop-color="#bababa"/><stop offset="0.36" stop-color="#9c9c9c"/><stop offset="0.36" stop-color="#8a8a8a"/><stop offset="0.37" stop-color="#949494"/><stop offset="0.39" stop-color="#b5b5b5"/><stop offset="0.41" stop-color="#d0d0d0"/><stop offset="0.44" stop-color="#e5e5e5"/><stop offset="0.47" stop-color="#f4f4f4"/><stop offset="0.5" stop-color="#fcfcfc"/><stop offset="0.56" stop-color="#fff"/><stop offset="0.64" stop-color="#fcfcfc"/><stop offset="0.69" stop-color="#f4f4f4"/><stop offset="0.73" stop-color="#e6e6e6"/><stop offset="0.77" stop-color="#d2d2d2"/><stop offset="0.81" stop-color="#b7b7b7"/><stop offset="0.84" stop-color="#989898"/><stop offset="0.86" stop-color="gray"/><stop offset="0.87" stop-color="#9e9e9e"/><stop offset="0.9" stop-color="#c1c1c1"/><stop offset="0.92" stop-color="#dcdcdc"/><stop offset="0.95" stop-color="#efefef"/><stop offset="0.97" stop-color="#fbfbfb"/><stop offset="1" stop-color="#fff"/></linearGradient><filter id="e" x="101.18" y="24.1" width="33.01" height="3.93" filterUnits="userSpaceOnUse" color-interpolation-filters="sRGB"><feFlood flood-color="#fff" result="bg"/><feBlend in="SourceGraphic" in2="bg"/></filter><mask id="d" x="101.18" y="24.1" width="33.01" height="3.93" maskUnits="userSpaceOnUse"><g mask="url(#a)" filter="url(#e)"><path d="M132.23,28H103.14a2,2,0,0,1,0-3.93h29.09a2,2,0,0,1,0,3.93Zm-29.09-3.9a1.93,1.93,0,0,0,0,3.87h29.09a1.93,1.93,0,0,0,0-3.87Z" fill="url(#c)" style="mix-blend-mode:multiply"/></g></mask></defs><title>phone</title><rect width="235.09" height="485.19" rx="26.66" ry="26.66" fill="#ddd"/><rect x="11.01" y="52.9" width="213.49" height="379" fill="#222"/><path d="M132.23,28H103.14a2,2,0,0,1-1.95-1.95h0a2,2,0,0,1,1.95-1.95h29.08a2,2,0,0,1,1.95,1.95h0A2,2,0,0,1,132.23,28Z"/><g mask="url(#d)"><path d="M132.23,28H103.14a2,2,0,0,1,0-3.93h29.09a2,2,0,0,1,0,3.93Zm-29.09-3.9a1.93,1.93,0,0,0,0,3.87h29.09a1.93,1.93,0,0,0,0-3.87Z" fill="#555"/></g><rect x="100.08" y="442.31" width="32.05" height="32.05" rx="4.85" ry="4.85" fill="#aaa"/></svg>