<svg xmlns="http://www.w3.org/2000/svg" viewBox="0 0 981 362.49">
  <title>serialization</title>
  <g>
    <rect x="180" y="182.49" width="140" height="70" fill="#124a56"/>
    <rect y="72.49" width="140" height="70" fill="#4d6553"/>
    <rect x="180" y="292.49" width="140" height="70" fill="#963517"/>
    <g>
      <line x1="140.5" y1="142.99" x2="168.23" y2="171.43" fill="none" stroke="#fff" stroke-miterlimit="10" stroke-width="3"/>
      <polygon points="157.91 176.91 179.5 182.99 173.97 161.25 157.91 176.91" fill="#fff"/>
    </g>
    <g>
      <line x1="250.5" y1="293.49" x2="250.5" y2="269.14" fill="none" stroke="#fff" stroke-miterlimit="10" stroke-width="3"/>
      <polygon points="261.72 272.42 250.5 252.99 239.28 272.42 261.72 272.42" fill="#fff"/>
    </g>
    <g>
      <path d="M55.18,108c0,5-2.57,8-6.75,8s-6.78-2.88-6.78-8,2.6-8,6.78-8S55.18,102.93,55.18,108Zm-10.12,0c0,4,1.25,5.54,3.37,5.54S51.77,112,51.77,108s-1.17-5.54-3.34-5.54S45.06,104,45.06,108Z" fill="#fff"/>
      <path d="M64.7,103.83l-.53,3a3.92,3.92,0,0,0-1-.15c-1.43,0-2.09,1.06-2.51,2.93v6H57.51V104h2.71l.29,2.27a3.33,3.33,0,0,1,3-2.6A4.18,4.18,0,0,1,64.7,103.83Z" fill="#fff"/>
      <path d="M76.17,99.34v16.3H73.42l-.18-1.43A3.92,3.92,0,0,1,69.9,116c-2.93,0-4.42-2.46-4.42-6.18s1.85-6.18,4.73-6.18A4,4,0,0,1,73,104.8V99ZM73,112.26V107a2.54,2.54,0,0,0-2-1.1c-1.36,0-2.29,1.14-2.29,3.87,0,2.93.84,3.85,2.09,3.85A2.58,2.58,0,0,0,73,112.26Z" fill="#fff"/>
      <path d="M88.91,110.76H81.63c.22,2.24,1.28,2.9,2.77,2.9a4.72,4.72,0,0,0,2.84-1l1.3,1.76A6.87,6.87,0,0,1,84.11,116c-3.74,0-5.7-2.46-5.7-6.12s1.89-6.25,5.3-6.25,5.26,2.2,5.26,5.92C89,109.95,88.93,110.43,88.91,110.76Zm-3-2.09c0-1.76-.59-2.9-2.09-2.9-1.23,0-2,.84-2.16,3h4.25Z" fill="#fff"/>
      <path d="M98.36,103.83l-.53,3a3.92,3.92,0,0,0-1-.15c-1.43,0-2.09,1.06-2.51,2.93v6H91.16V104h2.71l.29,2.27a3.33,3.33,0,0,1,3-2.6A4.18,4.18,0,0,1,98.36,103.83Z" fill="#fff"/>
    </g>
    <g>
      <path d="M222.1,215.33c0,3.52-2.51,5.13-6,5.13h-1.74v5.19h-3.23V210.42h4.71C219.72,210.42,222.1,212,222.1,215.33Zm-3.34,0c0-1.78-1.06-2.58-2.95-2.58h-1.43v5.33h1.47C217.63,218.08,218.75,217.39,218.75,215.33Z" fill="#fff"/>
      <path d="M231.1,213.83l-.53,3a3.91,3.91,0,0,0-1-.15c-1.43,0-2.09,1.06-2.51,2.93v6H223.9V214h2.71l.29,2.27a3.33,3.33,0,0,1,3-2.6A4.18,4.18,0,0,1,231.1,213.83Z" fill="#fff"/>
      <path d="M243,219.81c0,3.7-2.09,6.18-5.59,6.18s-5.59-2.31-5.59-6.18c0-3.72,2.09-6.18,5.61-6.18S243,215.94,243,219.81Zm-7.92,0c0,2.68.79,3.85,2.33,3.85s2.33-1.19,2.33-3.85-.79-3.85-2.31-3.85S235.06,217.15,235.06,219.81Z" fill="#fff"/>
      <path d="M255.38,209.34v16.3h-2.75l-.18-1.43A3.92,3.92,0,0,1,249.1,226c-2.93,0-4.42-2.46-4.42-6.18s1.85-6.18,4.73-6.18a4,4,0,0,1,2.84,1.17V209Zm-3.12,12.92V217a2.54,2.54,0,0,0-2-1.1c-1.36,0-2.29,1.14-2.29,3.87,0,2.93.84,3.85,2.09,3.85A2.58,2.58,0,0,0,252.25,222.26Z" fill="#fff"/>
      <path d="M267.81,225.64H265.1l-.15-1.56A3.91,3.91,0,0,1,261.4,226c-2.16,0-3.26-1.39-3.26-3.63V214h3.12v8c0,1.28.42,1.69,1.28,1.69a2.57,2.57,0,0,0,2.13-1.52V214h3.12Z" fill="#fff"/>
      <path d="M279.49,215l-1.36,1.85a3.55,3.55,0,0,0-2.29-.84c-1.56,0-2.49,1.12-2.49,3.83s1,3.61,2.46,3.61a3.94,3.94,0,0,0,2.31-.81l1.36,2a5.85,5.85,0,0,1-3.83,1.36c-3.48,0-5.61-2.38-5.61-6.09s2.16-6.27,5.57-6.27A5.6,5.6,0,0,1,279.49,215Z" fill="#fff"/>
      <path d="M288.86,225.09a5.51,5.51,0,0,1-3,.9c-2.42,0-3.65-1.41-3.65-4v-5.81h-1.74V214h1.74v-2.55l3.12-.37V214H288l-.31,2.2h-2.38v5.74c0,1.14.37,1.58,1.17,1.58a2.74,2.74,0,0,0,1.32-.4Z" fill="#fff"/>
    </g>
    <g>
      <path d="M220.44,330.19h-1.65v6h-3.23V320.92h4.75c4.07,0,6.14,1.47,6.14,4.55,0,2-1,3.23-3,4.12l3.94,6.56H223.7Zm-1.65-2.29h1.69c1.69,0,2.62-.7,2.62-2.42,0-1.56-.9-2.24-2.86-2.24h-1.45Z" fill="#fff"/>
      <path d="M238.48,331.27H231.2c.22,2.24,1.28,2.9,2.77,2.9a4.72,4.72,0,0,0,2.84-1l1.3,1.76a6.88,6.88,0,0,1-4.42,1.58c-3.74,0-5.7-2.46-5.7-6.12s1.89-6.25,5.3-6.25,5.26,2.2,5.26,5.92C238.55,330.45,238.51,330.94,238.48,331.27Zm-3-2.09c0-1.76-.59-2.9-2.09-2.9-1.23,0-2,.84-2.16,3h4.25Z" fill="#fff"/>
      <path d="M246.58,336.15h-3.72l-3.81-11.66h3.39l2.31,9.22,2.35-9.22h3.21Z" fill="#fff"/>
      <path d="M255.29,320.31a1.82,1.82,0,0,1-1.91,1.83,1.83,1.83,0,1,1,1.91-1.83ZM255,336.15h-3.12V324.49H255Z" fill="#fff"/>
      <path d="M267.6,331.27h-7.28c.22,2.24,1.28,2.9,2.77,2.9a4.72,4.72,0,0,0,2.84-1l1.3,1.76a6.88,6.88,0,0,1-4.42,1.58c-3.74,0-5.7-2.46-5.7-6.12s1.89-6.25,5.3-6.25,5.26,2.2,5.26,5.92C267.67,330.45,267.62,330.94,267.6,331.27Zm-3-2.09c0-1.76-.59-2.9-2.09-2.9-1.23,0-2,.84-2.16,3h4.25Z" fill="#fff"/>
      <path d="M282,336.15h-3.81l-1.67-8.87-1.67,8.87H271l-2.55-11.66h3.15l1.43,9.35,1.94-9.35h3.12l1.74,9.35,1.58-9.35h3Z" fill="#fff"/>
    </g>
    <text transform="translate(100.12 23.69)" font-size="28" fill="#fff" font-family="FiraSans-SemiBold, Fira Sans" font-weight="700"><tspan letter-spacing="-0.01em">D</tspan><tspan x="17.87" y="0" letter-spacing="-0.01em">a</tspan><tspan x="32.97" y="0" letter-spacing="0.01em">t</tspan><tspan x="43.77" y="0" letter-spacing="-0.01em">a</tspan><tspan x="58.8" y="0" letter-spacing="-0.01em">b</tspan><tspan x="75.29" y="0" letter-spacing="0.01em">a</tspan><tspan x="90.93" y="0" letter-spacing="0em">s</tspan><tspan x="104.34" y="0">e</tspan></text>
    <g>
      <path d="M451.19,117.1l9.33-19.32,1.94.9L453.14,118Z" fill="#fff"/>
      <path d="M473,109.81c0,3.7-1.89,6.12-5.26,6.12s-5.26-2.33-5.26-6.09,1.89-6.12,5.28-6.12S473,106.12,473,109.81Zm-7.92,0c0,2.88.88,4.2,2.66,4.2s2.66-1.32,2.66-4.22-.88-4.18-2.64-4.18S465,107,465,109.84Z" fill="#fff"/>
      <path d="M485.4,104l-.42,4.29h-1.76v-2.38c-1.63,0-2.86,1.36-3.52,3.63v4.31H482v1.76h-6.51v-1.76h1.72v-8.1h-1.72V104h3.59l.44,2.68c.88-1.94,2.09-3,4.09-3A5.27,5.27,0,0,1,485.4,104Z" fill="#fff"/>
      <path d="M497.66,99.36v16.28h-2.18l-.18-1.43a3.84,3.84,0,0,1-3.26,1.72c-3,0-4.38-2.44-4.38-6.09s1.74-6.12,4.6-6.12A3.75,3.75,0,0,1,495.2,105V99.08Zm-7.37,10.47c0,3,.88,4.22,2.42,4.22a3,3,0,0,0,2.49-1.67v-5.48a2.75,2.75,0,0,0-2.29-1.3C491.26,105.61,490.29,106.93,490.29,109.84Z" fill="#fff"/>
      <path d="M506.6,114a5.3,5.3,0,0,0,3.06-1l1.06,1.5a6.74,6.74,0,0,1-4.22,1.43c-3.63,0-5.61-2.46-5.61-6.09,0-3.48,2-6.12,5.3-6.12,3.08,0,5,2.2,5,5.81a8,8,0,0,1-.07,1.1h-7.7C503.58,113,504.92,114,506.6,114ZM503.41,109h5.39c0-2.2-.95-3.41-2.6-3.41S503.56,106.62,503.41,109Z" fill="#fff"/>
      <path d="M523.83,104l-.42,4.29h-1.76v-2.38c-1.63,0-2.86,1.36-3.52,3.63v4.31h2.33v1.76h-6.51v-1.76h1.72v-8.1h-1.72V104h3.59l.44,2.68c.88-1.94,2.09-3,4.09-3A5.27,5.27,0,0,1,523.83,104Z" fill="#fff"/>
      <path d="M533.23,112.5c0-.95-.37-1.39-2.77-2s-3.83-1.41-3.83-3.43,1.78-3.34,4.64-3.34a7.25,7.25,0,0,1,4.42,1.34l-1.06,1.56a5.77,5.77,0,0,0-3.3-1c-1.58,0-2.2.51-2.2,1.28s.64,1.21,2.95,1.85,3.76,1.41,3.76,3.61c0,2.53-2.46,3.61-5.13,3.61a7.09,7.09,0,0,1-4.78-1.63l1.3-1.5a5.57,5.57,0,0,0,3.48,1.25C532.26,114.06,533.23,113.47,533.23,112.5Z" fill="#fff"/>
      <path d="M537.4,117.1l9.33-19.32,1.94.9L539.36,118Z" fill="#fff"/>
    </g>
    <g>
      <path d="M451.19,227.1l9.33-19.32,1.94.9L453.14,228Z" fill="#fff"/>
      <path d="M473.6,219.81c0,3.54-1.54,6.12-4.49,6.12a3.72,3.72,0,0,1-2.95-1.28v5.46l-2.46.29V214h2.13l.15,1.5a4.17,4.17,0,0,1,3.39-1.8C472.44,213.72,473.6,216.12,473.6,219.81Zm-7.44-2.53v5.43a2.67,2.67,0,0,0,2.29,1.3c1.67,0,2.55-1.28,2.55-4.18s-.77-4.22-2.31-4.22A3.13,3.13,0,0,0,466.17,217.28Z" fill="#fff"/>
      <path d="M486.14,214l-.42,4.29H484v-2.38c-1.63,0-2.86,1.36-3.52,3.63v4.31h2.33v1.76h-6.51v-1.76H478v-8.1h-1.72V214h3.59l.44,2.68c.88-1.94,2.09-3,4.09-3A5.28,5.28,0,0,1,486.14,214Z" fill="#fff"/>
      <path d="M499,219.81c0,3.7-1.89,6.12-5.26,6.12s-5.26-2.33-5.26-6.09,1.89-6.12,5.28-6.12S499,216.12,499,219.81Zm-7.92,0c0,2.88.88,4.2,2.66,4.2s2.66-1.32,2.66-4.22-.88-4.18-2.64-4.18S491.05,217,491.05,219.84Z" fill="#fff"/>
      <path d="M511.57,209.36v16.28h-2.18l-.18-1.43a3.84,3.84,0,0,1-3.26,1.72c-3,0-4.38-2.44-4.38-6.09s1.74-6.12,4.6-6.12A3.75,3.75,0,0,1,509.1,215v-5.92Zm-7.37,10.47c0,3,.88,4.22,2.42,4.22a3,3,0,0,0,2.49-1.67v-5.48a2.75,2.75,0,0,0-2.29-1.3C505.16,215.61,504.2,216.93,504.2,219.84Z" fill="#fff"/>
      <path d="M517.76,222.15c0,1.36.55,1.92,1.65,1.92a3.41,3.41,0,0,0,2.71-1.63V214h2.46v11.62h-2.13l-.15-1.5a4.57,4.57,0,0,1-3.65,1.78c-2.27,0-3.34-1.3-3.34-3.48V214h2.46Z" fill="#fff"/>
      <path d="M536.58,222.92l1.12,1.58a6.48,6.48,0,0,1-4.07,1.43c-3.59,0-5.65-2.4-5.65-6s2.11-6.18,5.7-6.18a6.11,6.11,0,0,1,4,1.41l-1.14,1.54a5,5,0,0,0-2.84-1c-1.85,0-3.12,1.3-3.12,4.2s1.32,4,3.12,4A5.1,5.1,0,0,0,536.58,222.92Z" fill="#fff"/>
      <path d="M547.28,225.93c-2.71,0-4.14-1.52-4.14-3.81v-6.29h-2.57V214h2.57v-2.6l2.46-.29V214h3.94l-.29,1.8H545.6v6.27c0,1.25.59,1.85,2,1.85a4.41,4.41,0,0,0,2.16-.55l.88,1.63A6.46,6.46,0,0,1,547.28,225.93Z" fill="#fff"/>
      <path d="M560.58,222.5c0-.95-.37-1.39-2.77-2s-3.83-1.41-3.83-3.43,1.78-3.34,4.64-3.34a7.24,7.24,0,0,1,4.42,1.34L562,216.62a5.77,5.77,0,0,0-3.3-1c-1.58,0-2.2.51-2.2,1.28s.64,1.21,2.95,1.85,3.76,1.41,3.76,3.61c0,2.53-2.46,3.61-5.13,3.61a7.09,7.09,0,0,1-4.77-1.63l1.3-1.5a5.57,5.57,0,0,0,3.48,1.25C559.62,224.06,560.58,223.47,560.58,222.5Z" fill="#fff"/>
      <path d="M564.75,227.1l9.33-19.32,1.94.9L566.71,228Z" fill="#fff"/>
    </g>
    <g>
      <path d="M451.19,337.6l9.33-19.32,1.94.9-9.31,19.3Z" fill="#fff"/>
      <path d="M473.63,324.53l-.42,4.29h-1.76v-2.38c-1.63,0-2.86,1.36-3.52,3.63v4.31h2.33v1.76h-6.51v-1.76h1.72v-8.1h-1.72v-1.76h3.59l.44,2.68c.88-1.94,2.09-3,4.09-3A5.26,5.26,0,0,1,473.63,324.53Z" fill="#fff"/>
      <path d="M481.72,334.52a5.3,5.3,0,0,0,3.06-1l1.06,1.5a6.74,6.74,0,0,1-4.22,1.43c-3.63,0-5.61-2.46-5.61-6.09,0-3.48,2-6.12,5.3-6.12,3.08,0,5,2.2,5,5.81a8,8,0,0,1-.07,1.1h-7.7C478.7,333.51,480,334.52,481.72,334.52Zm-3.19-5.06h5.39c0-2.2-.95-3.41-2.6-3.41S478.68,327.13,478.53,329.46Z" fill="#fff"/>
      <path d="M495.14,336.15h-2.86l-4.12-11.62h2.66l2.93,9.57,3-9.57h2.53Z" fill="#fff"/>
      <path d="M508.09,334.35h3.17v1.8h-9.09v-1.8h3.45v-8h-3.34v-1.8h5.81ZM508,320.4a1.61,1.61,0,1,1-1.61-1.56A1.54,1.54,0,0,1,508,320.4Z" fill="#fff"/>
      <path d="M519.38,334.52a5.3,5.3,0,0,0,3.06-1l1.06,1.5a6.74,6.74,0,0,1-4.22,1.43c-3.63,0-5.61-2.46-5.61-6.09,0-3.48,2-6.12,5.3-6.12,3.08,0,5,2.2,5,5.81a8,8,0,0,1-.07,1.1h-7.7C516.37,333.51,517.71,334.52,519.38,334.52Zm-3.19-5.06h5.39c0-2.2-.95-3.41-2.6-3.41S516.34,327.13,516.19,329.46Z" fill="#fff"/>
      <path d="M533.52,336.15l-1.32-8.25-1.41,8.25h-3l-2-11.62h2.38l1.21,10.08L531,326h2.46l1.5,8.6,1.21-10.08h2.29l-1.89,11.62Z" fill="#fff"/>
      <path d="M547.35,333c0-.95-.37-1.39-2.77-2s-3.83-1.41-3.83-3.43,1.78-3.34,4.64-3.34a7.24,7.24,0,0,1,4.42,1.34l-1.06,1.56a5.77,5.77,0,0,0-3.3-1c-1.58,0-2.2.51-2.2,1.28s.64,1.21,2.95,1.85,3.76,1.41,3.76,3.61c0,2.53-2.46,3.61-5.13,3.61a7.09,7.09,0,0,1-4.77-1.63l1.3-1.5a5.58,5.58,0,0,0,3.48,1.25C546.38,334.57,547.35,334,547.35,333Z" fill="#fff"/>
      <path d="M551.52,337.6l9.33-19.32,1.94.9-9.31,19.3Z" fill="#fff"/>
    </g>
    <text transform="translate(469.55 23.69)" font-size="28" fill="#fff" font-family="FiraSans-SemiBold, Fira Sans" font-weight="700"><tspan letter-spacing="0em">A</tspan><tspan x="16.45" y="0" letter-spacing="-0.02em">P</tspan><tspan x="32.68" y="0">I</tspan></text>
    <rect x="841" y="182.49" width="140" height="70" fill="#124a56"/>
    <rect x="661" y="72.49" width="140" height="70" fill="#4d6553"/>
    <rect x="841" y="292.49" width="140" height="70" fill="#963517"/>
    <g>
      <line x1="801.5" y1="142.99" x2="832.27" y2="174.55" fill="none" stroke="#fff" stroke-miterlimit="10" stroke-width="0.97"/>
      <polygon points="824.74 178.56 840.5 182.99 836.46 167.12 824.74 178.56" fill="#fff"/>
    </g>
    <g>
      <line x1="911.5" y1="293.49" x2="911.5" y2="264.78" fill="none" stroke="#fff" stroke-miterlimit="10" stroke-width="0.97"/>
      <polygon points="919.69 267.17 911.5 252.99 903.31 267.17 919.69 267.17" fill="#fff"/>
    </g>
    <g>
      <path d="M716.18,108c0,5-2.57,8-6.75,8s-6.78-2.88-6.78-8,2.6-8,6.78-8S716.18,102.93,716.18,108Zm-10.12,0c0,4,1.25,5.54,3.37,5.54s3.34-1.56,3.34-5.54-1.17-5.54-3.34-5.54S706.06,104,706.06,108Z" fill="#fff"/>
      <path d="M725.7,103.83l-.53,3a3.92,3.92,0,0,0-1-.15c-1.43,0-2.09,1.06-2.51,2.93v6h-3.12V104h2.71l.29,2.27a3.33,3.33,0,0,1,3-2.6A4.18,4.18,0,0,1,725.7,103.83Z" fill="#fff"/>
      <path d="M737.17,99.34v16.3h-2.75l-.18-1.43A3.92,3.92,0,0,1,730.9,116c-2.93,0-4.42-2.46-4.42-6.18s1.85-6.18,4.73-6.18A4,4,0,0,1,734,104.8V99ZM734,112.26V107a2.54,2.54,0,0,0-2-1.1c-1.36,0-2.29,1.14-2.29,3.87,0,2.93.84,3.85,2.09,3.85A2.58,2.58,0,0,0,734,112.26Z" fill="#fff"/>
      <path d="M749.91,110.76h-7.28c.22,2.24,1.28,2.9,2.77,2.9a4.72,4.72,0,0,0,2.84-1l1.3,1.76a6.87,6.87,0,0,1-4.42,1.58c-3.74,0-5.7-2.46-5.7-6.12s1.89-6.25,5.3-6.25,5.26,2.2,5.26,5.92C750,109.95,749.93,110.43,749.91,110.76Zm-3-2.09c0-1.76-.59-2.9-2.09-2.9-1.23,0-2,.84-2.16,3h4.25Z" fill="#fff"/>
      <path d="M759.36,103.83l-.53,3a3.92,3.92,0,0,0-1-.15c-1.43,0-2.09,1.06-2.51,2.93v6h-3.12V104h2.71l.29,2.27a3.33,3.33,0,0,1,3-2.6A4.18,4.18,0,0,1,759.36,103.83Z" fill="#fff"/>
    </g>
    <g>
      <path d="M883.1,215.33c0,3.52-2.51,5.13-6,5.13h-1.74v5.19h-3.23V210.42h4.71C880.72,210.42,883.1,212,883.1,215.33Zm-3.35,0c0-1.78-1.06-2.58-2.95-2.58h-1.43v5.33h1.47C878.63,218.08,879.75,217.39,879.75,215.33Z" fill="#fff"/>
      <path d="M892.1,213.83l-.53,3a3.91,3.91,0,0,0-1-.15c-1.43,0-2.09,1.06-2.51,2.93v6H884.9V214h2.71l.29,2.27a3.33,3.33,0,0,1,3-2.6A4.18,4.18,0,0,1,892.1,213.83Z" fill="#fff"/>
      <path d="M904,219.81c0,3.7-2.09,6.18-5.59,6.18s-5.59-2.31-5.59-6.18c0-3.72,2.09-6.18,5.61-6.18S904,215.94,904,219.81Zm-7.92,0c0,2.68.79,3.85,2.33,3.85s2.33-1.19,2.33-3.85-.79-3.85-2.31-3.85S896.05,217.15,896.05,219.81Z" fill="#fff"/>
      <path d="M916.38,209.34v16.3h-2.75l-.18-1.43A3.92,3.92,0,0,1,910.1,226c-2.93,0-4.42-2.46-4.42-6.18s1.85-6.18,4.73-6.18a4,4,0,0,1,2.84,1.17V209Zm-3.12,12.92V217a2.54,2.54,0,0,0-2-1.1c-1.36,0-2.29,1.14-2.29,3.87,0,2.93.84,3.85,2.09,3.85A2.58,2.58,0,0,0,913.25,222.26Z" fill="#fff"/>
      <path d="M928.81,225.64H926.1l-.15-1.56A3.91,3.91,0,0,1,922.4,226c-2.16,0-3.26-1.39-3.26-3.63V214h3.12v8c0,1.28.42,1.69,1.28,1.69a2.57,2.57,0,0,0,2.13-1.52V214h3.12Z" fill="#fff"/>
      <path d="M940.49,215l-1.36,1.85a3.55,3.55,0,0,0-2.29-.84c-1.56,0-2.49,1.12-2.49,3.83s1,3.61,2.46,3.61a4,4,0,0,0,2.31-.81l1.36,2a5.84,5.84,0,0,1-3.83,1.36c-3.48,0-5.61-2.38-5.61-6.09s2.16-6.27,5.57-6.27A5.6,5.6,0,0,1,940.49,215Z" fill="#fff"/>
      <path d="M949.86,225.09a5.51,5.51,0,0,1-3,.9c-2.42,0-3.65-1.41-3.65-4v-5.81h-1.74V214h1.74v-2.55l3.12-.37V214H949l-.31,2.2h-2.38v5.74c0,1.14.37,1.58,1.17,1.58a2.73,2.73,0,0,0,1.32-.4Z" fill="#fff"/>
    </g>
    <g>
      <path d="M881.44,330.19h-1.65v6h-3.23V320.92h4.75c4.07,0,6.14,1.47,6.14,4.55,0,2-1,3.23-3,4.12l3.94,6.56H884.7Zm-1.65-2.29h1.7c1.69,0,2.62-.7,2.62-2.42,0-1.56-.9-2.24-2.86-2.24h-1.45Z" fill="#fff"/>
      <path d="M899.48,331.27H892.2c.22,2.24,1.28,2.9,2.77,2.9a4.72,4.72,0,0,0,2.84-1l1.3,1.76a6.88,6.88,0,0,1-4.42,1.58c-3.74,0-5.7-2.46-5.7-6.12s1.89-6.25,5.3-6.25,5.26,2.2,5.26,5.92C899.55,330.45,899.51,330.94,899.48,331.27Zm-3-2.09c0-1.76-.59-2.9-2.09-2.9-1.23,0-2,.84-2.16,3h4.25Z" fill="#fff"/>
      <path d="M907.58,336.15h-3.72l-3.81-11.66h3.39l2.31,9.22,2.35-9.22h3.21Z" fill="#fff"/>
      <path d="M916.29,320.31a1.82,1.82,0,0,1-1.91,1.83,1.83,1.83,0,1,1,1.91-1.83ZM916,336.15h-3.12V324.49H916Z" fill="#fff"/>
      <path d="M928.6,331.27h-7.28c.22,2.24,1.28,2.9,2.77,2.9a4.72,4.72,0,0,0,2.84-1l1.3,1.76a6.87,6.87,0,0,1-4.42,1.58c-3.74,0-5.7-2.46-5.7-6.12s1.89-6.25,5.3-6.25,5.26,2.2,5.26,5.92C928.67,330.45,928.62,330.94,928.6,331.27Zm-3-2.09c0-1.76-.59-2.9-2.09-2.9-1.23,0-2,.84-2.16,3h4.25Z" fill="#fff"/>
      <path d="M943,336.15h-3.81l-1.67-8.87-1.67,8.87H932l-2.55-11.66h3.15l1.43,9.35,1.94-9.35h3.12l1.74,9.35,1.58-9.35h3Z" fill="#fff"/>
    </g>
    <text transform="translate(784.19 23.69)" font-size="28" fill="#fff" font-family="FiraSans-SemiBold, Fira Sans" font-weight="700"><tspan letter-spacing="-0.01em">C</tspan><tspan x="15.82" y="0" letter-spacing="0em">l</tspan><tspan x="24" y="0" letter-spacing="-0.01em">i</tspan><tspan x="31.55" y="0" letter-spacing="-0.01em">e</tspan><tspan x="46.83" y="0" letter-spacing="0em">n</tspan><tspan x="62.98" y="0">t</tspan></text>
    <g>
      <line x1="169.5" y1="112.49" x2="417.83" y2="112.49" fill="none" stroke="#aaa" stroke-miterlimit="10" stroke-width="2" stroke-dasharray="6 6"/>
      <polygon points="411.2 120.67 409.84 119.21 417.06 112.49 409.84 105.78 411.2 104.31 420 112.49 411.2 120.67" fill="#aaa"/>
    </g>
    <g>
      <line x1="570.5" y1="112.49" x2="628.33" y2="112.49" fill="none" stroke="#aaa" stroke-miterlimit="10" stroke-width="2" stroke-dasharray="6 6"/>
      <polygon points="621.7 120.67 620.34 119.21 627.56 112.49 620.34 105.78 621.7 104.31 630.5 112.49 621.7 120.67" fill="#aaa"/>
    </g>
    <g>
      <line x1="600.5" y1="222.49" x2="809.83" y2="222.49" fill="none" stroke="#aaa" stroke-miterlimit="10" stroke-width="2" stroke-dasharray="6 6"/>
      <polygon points="803.2 230.67 801.84 229.21 809.06 222.49 801.84 215.78 803.2 214.31 812 222.49 803.2 230.67" fill="#aaa"/>
    </g>
    <g>
      <line x1="589.5" y1="332.49" x2="808.83" y2="332.49" fill="none" stroke="#aaa" stroke-miterlimit="10" stroke-width="2" stroke-dasharray="6 6"/>
      <polygon points="802.2 340.67 800.84 339.21 808.06 332.49 800.84 325.78 802.2 324.31 811 332.49 802.2 340.67" fill="#aaa"/>
    </g>
    <g>
      <line x1="349.5" y1="222.49" x2="417.83" y2="222.49" fill="none" stroke="#aaa" stroke-miterlimit="10" stroke-width="2" stroke-dasharray="6 6"/>
      <polygon points="411.2 230.67 409.84 229.21 417.06 222.49 409.84 215.78 411.2 214.31 420 222.49 411.2 230.67" fill="#aaa"/>
    </g>
    <g>
      <line x1="349.5" y1="332.49" x2="417.83" y2="332.49" fill="none" stroke="#aaa" stroke-miterlimit="10" stroke-width="2" stroke-dasharray="6 6"/>
      <polygon points="411.2 340.67 409.84 339.21 417.06 332.49 409.84 325.78 411.2 324.31 420 332.49 411.2 340.67" fill="#aaa"/>
    </g>
  </g>
</svg>
